<?xml version="1.0" encoding="utf-8"?>
<!-- Generator: Adobe Illustrator 23.1.1, SVG Export Plug-In . SVG Version: 6.00 Build 0)  -->
<svg version="1.1" id="Livello_1" xmlns="http://www.w3.org/2000/svg" xmlns:xlink="http://www.w3.org/1999/xlink" x="0px" y="0px"
	 viewBox="0 0 600 600" style="enable-background:new 0 0 600 600;" xml:space="preserve">
<style type="text/css">
	.st0{fill:#FFFFFF;stroke:#000000;stroke-width:2.764;stroke-miterlimit:10;}
	.st1{fill:#E9B143;stroke:#FFFFFF;stroke-width:2.764;stroke-miterlimit:10;}
	.st2{fill:#284580;stroke:#FFFFFF;stroke-width:2.764;stroke-miterlimit:10;}
	.st3{fill:#FFFFFF;}
	.st4{fill:#B0322F;}
</style>
<g>
	<path class="st0" d="M299.5,9.5C148.1,9.5,23.8,125.3,10.3,273.2c-0.5,26.6-0.2,51-0.2,51c12.3,149.1,137.2,266.3,289.5,266.3
		C459.9,590.5,590,460.4,590,300C590,139.6,459.9,9.5,299.5,9.5z"/>
	<g>
		<path class="st1" d="M297.9,300.6L179.7,505.3C109.4,464.2,62,388,61.8,300.6H297.9z"/>
		<path class="st2" d="M61.8,297.2c1-86.8,48.5-162.4,118.8-203.1l117.3,203.1H61.8z"/>
		<path class="st2" d="M300.8,302.3l117.5,203.6c-35,20.2-75.5,31.9-118.8,31.9c-42.5,0-82.4-11.2-116.9-30.7L300.8,302.3z"/>
		<path class="st1" d="M303.7,300.6h233.5c-0.2,86.5-46.7,162.2-116,203.6L303.7,300.6z"/>
		<path class="st2" d="M303.7,297.2l116.6-202c69.2,40.9,115.9,116,116.8,202H303.7z"/>
		<path class="st1" d="M299.5,62.2c42.9,0,83.2,11.4,117.9,31.3l-116.6,202L183.6,92.5C217.9,73.2,257.4,62.2,299.5,62.2z"/>
	</g>
	<g>
		<path class="st3" d="M250.1,513.2V502l-4.1-1l-3.1,13.6l2.6,0.6l2.1-9.2c0.1-0.3,0.1-0.6,0.2-1.1c0.1-0.5,0.2-0.8,0.2-1.1l-0.1,12
			l2.8,0.6l5.2-10.8c-0.1,0.3-0.1,0.6-0.3,1.1c-0.1,0.5-0.2,0.8-0.3,1.1l-2.1,9.2l2.6,0.6l3.1-13.6l-4.1-0.9L250.1,513.2z"/>
		<path class="st3" d="M263.9,508.4c0.7-0.7,1.6-1,2.6-0.9c1,0.2,1.7,0.6,2.1,1.3c0.2,0.4,0.4,0.9,0.5,1.6l2.9,0.5
			c0.1-0.9-0.1-1.8-0.5-2.7c-0.8-1.7-2.4-2.7-4.7-3.1c-1.7-0.3-3.2,0.1-4.5,1c-1.5,1.1-2.4,2.8-2.8,5.2c-0.3,2.2-0.1,4.1,0.9,5.5
			c0.9,1.4,2.4,2.3,4.3,2.6c1.6,0.3,3,0,4.1-0.8c1.2-0.8,2-1.9,2.5-3.4l-2.9-0.5c-0.3,0.7-0.6,1.2-1,1.5c-0.6,0.6-1.4,0.8-2.4,0.6
			c-1-0.2-1.7-0.7-2.2-1.5c-0.5-0.9-0.6-2.1-0.4-3.6C262.7,510.3,263.2,509.1,263.9,508.4z"/>
		<path class="st3" d="M280.3,518l-1.6-11.1l-4.2-0.4l-1.2,13.9l2.7,0.2l0.8-9.4c0-0.3,0.1-0.6,0.1-1.1c0-0.5,0.1-0.9,0.1-1.1
			l1.6,11.9l2.8,0.2l3.7-11.4c0,0.3-0.1,0.6-0.1,1.1c0,0.5-0.1,0.9-0.1,1.1l-0.8,9.4l2.7,0.2l1.2-13.9l-4.2-0.4L280.3,518z"/>
		<polygon class="st3" points="293,507.8 290.1,507.7 289.8,521.6 299.7,521.9 299.7,519.4 292.8,519.2 		"/>
		<polygon class="st3" points="312.5,507.6 309.2,507.7 306.8,512.3 304.1,507.8 300.6,507.9 305.1,514.6 300.9,521.9 304.3,521.8 
			306.9,516.9 309.7,521.6 313.2,521.5 308.5,514.4 		"/>
		<polygon class="st3" points="324.9,506.4 321.6,506.7 319.4,511.5 316.5,507.2 313.1,507.5 317.9,513.9 314.1,521.4 317.5,521.1 
			319.9,516.1 322.9,520.6 326.4,520.3 321.3,513.5 		"/>
		<polygon class="st3" points="337.2,504.6 333.9,505.1 332,509.9 328.9,505.8 325.5,506.4 330.7,512.5 327.4,520.2 330.7,519.6 
			332.8,514.5 336.1,518.8 339.6,518.3 334,511.8 		"/>
		
			<rect x="339.9" y="503.8" transform="matrix(0.9811 -0.1937 0.1937 0.9811 -92.4484 75.7805)" class="st3" width="2.9" height="13.9"/>
		
			<rect x="345.1" y="502.7" transform="matrix(0.9761 -0.2174 0.2174 0.9761 -102.5256 87.5388)" class="st3" width="2.9" height="13.9"/>
	</g>
	<g>
		<g>
			<polygon class="st4" points="147,356.6 147,320.2 158.7,320.2 158.7,329.7 163.1,329.7 163.1,320.2 172.7,320.2 172.7,329.7 
				177.1,329.7 177.1,320.2 188.8,320.2 188.8,356.6 			"/>
			<g>
				<path class="st4" d="M173.8,441.6v-28.3c0-2.7-2.2-4.9-4.9-4.9c-2.7,0-4.9,2.2-4.9,4.9v28.3h-25.6l8.7-84.3h41.4l8.7,84.3H173.8
					z"/>
				<g>
					<path class="st3" d="M199.2,439.1l-8.3-80.2l0-0.3h0v-4.1v-32.2v-4.1h-4.1h-37.7h-4.1v4.1v32.2v4.1h0l0,0.3l-8.3,80.2l-0.5,4.6
						h4.6h35.1H195h4.6L199.2,439.1z M149.1,322.3h7.6v9.4h8.5v-9.4h5.5v9.4h8.5v-9.4h7.6v32.2h-37.7V322.3z M175.9,439.5v-26.3
						c0-3.8-3.1-7-7-7c-3.8,0-7,3.1-7,7v26.3h-21.2l8.3-80.2h37.7l8.3,80.2H175.9z"/>
					<path class="st3" d="M168.9,373.2c-2.3,0-4.3,1.9-4.3,4.3v12.2h8.5v-12.2C173.2,375.1,171.3,373.2,168.9,373.2z"/>
				</g>
			</g>
		</g>
		<g>
			<polygon class="st4" points="146.8,191.2 146.8,154.9 158.5,154.9 158.5,164.3 162.9,164.3 162.9,154.9 172.5,154.9 172.5,164.3 
				176.9,164.3 176.9,154.9 188.6,154.9 188.6,191.2 			"/>
			<g>
				<path class="st4" d="M173.6,276.3v-28.3c0-2.7-2.2-4.9-4.9-4.9c-2.7,0-4.9,2.2-4.9,4.9v28.3h-25.6l8.7-84.3h41.4l8.7,84.3H173.6
					z"/>
				<g>
					<path class="st3" d="M198.9,273.8l-8.3-80.2l0-0.3h0v-4.1V157v-4.1h-4.1h-37.7h-4.1v4.1v32.2v4.1h0l0,0.3l-8.3,80.2l-0.5,4.6
						h4.6h35.1h19.1h4.6L198.9,273.8z M148.8,157h7.6v9.4h8.5V157h5.5v9.4h8.5V157h7.6v32.2h-37.7V157z M175.7,274.2v-26.3
						c0-3.8-3.1-7-7-7s-7,3.1-7,7v26.3h-21.2l8.3-80.2h37.7l8.3,80.2H175.7z"/>
					<path class="st3" d="M168.7,207.9c-2.3,0-4.3,1.9-4.3,4.3v12.2h8.5v-12.2C173,209.8,171.1,207.9,168.7,207.9z"/>
				</g>
			</g>
		</g>
		<g>
			<polygon class="st4" points="277.3,409.6 277.3,373.3 289,373.3 289,382.7 293.4,382.7 293.4,373.3 303,373.3 303,382.7 
				307.4,382.7 307.4,373.3 319.1,373.3 319.1,409.6 			"/>
			<g>
				<path class="st4" d="M304.1,494.7v-28.3c0-2.7-2.2-4.9-4.9-4.9c-2.7,0-4.9,2.2-4.9,4.9v28.3h-25.6l8.7-84.3h41.4l8.7,84.3H304.1
					z"/>
				<g>
					<path class="st3" d="M329.5,492.2l-8.3-80.2l0-0.3h0v-4.1v-32.2v-4.1H317h-37.7h-4.1v4.1v32.2v4.1h0l0,0.3l-8.3,80.2l-0.5,4.6
						h4.6h35.1h19.1h4.6L329.5,492.2z M279.4,375.4h7.6v9.4h8.5v-9.4h5.5v9.4h8.5v-9.4h7.6v32.2h-37.7V375.4z M306.2,492.6v-26.3
						c0-3.8-3.1-7-7-7s-7,3.1-7,7v26.3h-21.2l8.3-80.2H317l8.3,80.2H306.2z"/>
					<path class="st3" d="M299.2,426.3c-2.3,0-4.3,1.9-4.3,4.3v12.2h8.5v-12.2C303.5,428.2,301.6,426.3,299.2,426.3z"/>
				</g>
			</g>
		</g>
		<g>
			<polygon class="st4" points="409.3,356.7 409.3,320.4 421,320.4 421,329.8 425.4,329.8 425.4,320.4 435,320.4 435,329.8 
				439.4,329.8 439.4,320.4 451.1,320.4 451.1,356.7 			"/>
			<g>
				<path class="st4" d="M436.1,441.7v-28.3c0-2.7-2.2-4.9-4.9-4.9c-2.7,0-4.9,2.2-4.9,4.9v28.3h-25.6l8.7-84.3h41.4l8.7,84.3H436.1
					z"/>
				<g>
					<path class="st3" d="M461.5,439.2l-8.3-80.2l0-0.3h0v-4.1v-32.2v-4.1H449h-37.7h-4.1v4.1v32.2v4.1h0l0,0.3l-8.3,80.2l-0.5,4.6
						h4.6h35.1h19.1h4.6L461.5,439.2z M411.4,322.4h7.6v9.4h8.5v-9.4h5.5v9.4h8.5v-9.4h7.6v32.2h-37.7V322.4z M438.2,439.6v-26.3
						c0-3.8-3.1-7-7-7c-3.8,0-7,3.1-7,7v26.3h-21.2l8.3-80.2H449l8.3,80.2H438.2z"/>
					<path class="st3" d="M431.2,373.3c-2.3,0-4.3,1.9-4.3,4.3v12.2h8.5v-12.2C435.5,375.2,433.6,373.3,431.2,373.3z"/>
				</g>
			</g>
		</g>
		<g>
			<polygon class="st4" points="409.3,191.5 409.3,155.2 421,155.2 421,164.6 425.4,164.6 425.4,155.2 435,155.2 435,164.6 
				439.4,164.6 439.4,155.2 451.1,155.2 451.1,191.5 			"/>
			<g>
				<path class="st4" d="M436.1,276.5v-28.3c0-2.7-2.2-4.9-4.9-4.9c-2.7,0-4.9,2.2-4.9,4.9v28.3h-25.6l8.7-84.3h41.4l8.7,84.3H436.1
					z"/>
				<g>
					<path class="st3" d="M461.5,274l-8.3-80.2l0-0.3h0v-4.1v-32.2v-4.1H449h-37.7h-4.1v4.1v32.2v4.1h0l0,0.3l-8.3,80.2l-0.5,4.6
						h4.6h35.1h19.1h4.6L461.5,274z M411.4,157.2h7.6v9.4h8.5v-9.4h5.5v9.4h8.5v-9.4h7.6v32.2h-37.7V157.2z M438.2,274.4v-26.3
						c0-3.8-3.1-7-7-7c-3.8,0-7,3.1-7,7v26.3h-21.2l8.3-80.2H449l8.3,80.2H438.2z"/>
					<path class="st3" d="M431.2,208.1c-2.3,0-4.3,1.9-4.3,4.3v12.2h8.5v-12.2C435.5,210,433.6,208.1,431.2,208.1z"/>
				</g>
			</g>
		</g>
		<g>
			<polygon class="st4" points="277.5,134.5 277.5,98.2 289.3,98.2 289.3,107.6 293.6,107.6 293.6,98.2 303.3,98.2 303.3,107.6 
				307.6,107.6 307.6,98.2 319.4,98.2 319.4,134.5 			"/>
			<g>
				<path class="st4" d="M304.4,219.5v-28.3c0-2.7-2.2-4.9-4.9-4.9c-2.7,0-4.9,2.2-4.9,4.9v28.3H269l8.7-84.3h41.4l8.7,84.3H304.4z"
					/>
				<g>
					<path class="st3" d="M329.7,217l-8.3-80.2l0-0.3h0v-4.1v-32.2v-4.1h-4.1h-37.7h-4.1v4.1v32.2v4.1h0l0,0.3l-8.3,80.2l-0.5,4.6
						h4.6h35.1h19.1h4.6L329.7,217z M279.6,100.2h7.6v9.4h8.5v-9.4h5.5v9.4h8.5v-9.4h7.6v32.2h-37.7V100.2z M306.4,217.4v-26.3
						c0-3.8-3.1-7-7-7s-7,3.1-7,7v26.3h-21.2l8.3-80.2h37.7l8.3,80.2H306.4z"/>
					<path class="st3" d="M299.5,151.1c-2.3,0-4.3,1.9-4.3,4.3v12.2h8.5v-12.2C303.7,153,301.8,151.1,299.5,151.1z"/>
				</g>
			</g>
		</g>
	</g>
	<g>
		<path d="M573.7,280.1c-0.2-2.1-0.8-4-2-5.8c-1.2-1.8-2.7-3.1-4.7-4.1c-2-0.9-4-1.3-6.1-1.2c-2,0.2-3.8,0.8-5.5,1.9
			c-1.7,1.1-2.9,2.6-3.7,4.5c-0.8,1.9-1.1,4-0.9,6.3c0.1,1.8,0.5,3.3,1.2,4.6c0.7,1.3,1.7,2.5,3.1,3.6l1.9-0.1
			c-1.6-1.2-2.7-2.3-3.4-3.4c-0.7-1.1-1.1-2.3-1.2-3.7c-0.1-1.7,0.2-3.1,0.9-4.2c0.7-1.1,1.9-2,3.5-2.6c1.6-0.6,3.3-1,5.3-1.2
			c2-0.2,3.8,0,5.5,0.6c1.3,0.4,2.4,1.2,3.3,2.3c0.9,1.1,1.4,2.3,1.5,3.7c0.1,1.6-0.3,3.1-1.2,4.5c-1,1.4-2.4,2.4-4.3,3l0,0.6
			l7.6-0.6l-0.1-0.6c-0.6,0-1-0.2-1.2-0.4c-0.3-0.2-0.4-0.5-0.4-0.9c0-0.3,0.1-0.9,0.4-1.9C573.6,283.3,573.8,281.6,573.7,280.1z"/>
		<path d="M573.9,305.5v-11.5l-0.6,0v0.7c0,0.6-0.1,1.1-0.3,1.5c-0.2,0.4-0.5,0.6-0.7,0.7c-0.3,0.1-1,0.2-2.1,0.2l-14.4,0
			c-1.1,0-1.8-0.1-2-0.2c-0.4-0.2-0.6-0.4-0.8-0.6c-0.2-0.4-0.3-0.9-0.3-1.5l0-0.7h-0.6l0,11.5h0.6l0-0.7c0-0.6,0.1-1.1,0.3-1.5
			s0.5-0.6,0.7-0.7c0.3-0.1,1-0.2,2.1-0.2l14.4,0c1.1,0,1.8,0.1,2,0.2c0.4,0.2,0.6,0.4,0.8,0.7c0.2,0.4,0.3,0.9,0.3,1.5v0.7
			L573.9,305.5z"/>
		<path d="M554.4,261.3c-0.4,0.4-0.9,0.6-1.4,0.7c-0.9,0.1-1.7-0.1-2.4-0.7c-0.8-0.6-1.3-1.5-1.5-2.7c-0.3-1.5,0.1-3.1,1.1-4.6
			c1-1.5,2.6-2.7,4.8-3.6l-0.1-0.6l-8.2,1.4l0.1,0.6c0.5,0.1,0.8,0.3,1.1,0.6c0.3,0.3,0.4,0.5,0.5,0.8c0.1,0.3,0,0.8-0.1,1.3
			c-0.2,1-0.4,1.8-0.4,2.4c0,0.6,0,1.3,0.1,2c0.4,2.2,1.3,3.9,2.9,5.1c1.5,1.2,3.2,1.6,5,1.3c1.4-0.2,2.6-0.9,3.6-1.9
			c1-1.1,1.9-3,2.7-5.7c0.6-2,1-3.2,1.3-3.8c0.4-0.8,0.8-1.3,1.2-1.7c0.3-0.3,0.7-0.5,1.2-0.5c0.8-0.1,1.5,0.1,2.2,0.6
			c0.7,0.5,1.1,1.3,1.3,2.4c0.2,1.4-0.1,2.8-1,4.2c-0.9,1.4-2.2,2.4-4,3l0.1,0.7l7.2-1.4l-0.1-0.5c-0.7,0-1.1-0.1-1.3-0.2
			c-0.2-0.1-0.3-0.3-0.4-0.6c0-0.3,0-0.8,0.3-1.6c0.2-0.8,0.4-1.4,0.4-1.9c0.1-0.7,0-1.4-0.1-2.1c-0.3-1.9-1.2-3.4-2.6-4.5
			c-1.4-1.1-3-1.4-4.7-1.2c-1,0.2-1.9,0.6-2.7,1.2c-0.8,0.6-1.4,1.4-1.9,2.4c-0.5,1-1.1,2.5-1.8,4.7c-0.5,1.5-0.9,2.6-1.2,3.2
			C555.3,260.5,554.9,261,554.4,261.3z"/>
		<path d="M553.1,217.8c-1.1-0.6-2.3-0.7-3.5-0.3c-1.2,0.4-2.1,1.1-2.7,2.3c-0.6,1.1-0.7,2.3-0.3,3.5c0.4,1.2,1.1,2.1,2.3,2.7
			c1.1,0.6,2.3,0.7,3.5,0.3c1.2-0.4,2.1-1.1,2.7-2.3c0.6-1.1,0.7-2.3,0.3-3.5C555,219.2,554.3,218.3,553.1,217.8z"/>
		<path d="M550.8,192.3c-0.1,0.4-0.2,0.7-0.4,0.9c-0.2,0.2-0.8,0.5-1.9,1l-13.3,5.5c-1,0.4-1.7,0.6-2,0.6c-0.4,0-0.7-0.1-1-0.3
			c-0.4-0.3-0.7-0.7-0.9-1.3l-0.3-0.7l-0.6,0.2l4.4,10.6l0.6-0.2l-0.3-0.7c-0.2-0.6-0.3-1.1-0.3-1.5c0.1-0.4,0.2-0.7,0.4-1
			c0.2-0.2,0.8-0.5,1.9-1l13.4-5.5c1-0.4,1.7-0.6,2-0.6c0.4,0,0.7,0.1,1,0.3c0.4,0.3,0.7,0.7,0.9,1.3l0.3,0.7l0.6-0.2l-4.4-10.6
			l-0.6,0.2l0.3,0.7C550.8,191.4,550.9,191.9,550.8,192.3z"/>
		<path d="M542.2,180.5l-13,6.3c-1,0.5-1.6,0.7-1.9,0.7c-0.4,0-0.7-0.1-1-0.2c-0.4-0.3-0.7-0.7-1-1.2l-0.3-0.7l-0.5,0.3l5,10.3
			l0.5-0.3l-0.3-0.7c-0.3-0.6-0.4-1-0.4-1.5c0-0.4,0.2-0.7,0.4-1c0.2-0.2,0.8-0.6,1.8-1.1l13-6.3c1-0.5,1.6-0.7,1.9-0.7
			c0.4,0,0.7,0.1,1,0.3c0.4,0.3,0.7,0.7,1,1.2l0.3,0.7l0.5-0.3l-5-10.3l-0.5,0.3l0.3,0.7c0.3,0.6,0.4,1,0.4,1.5c0,0.4-0.2,0.7-0.4,1
			C543.9,179.7,543.3,180,542.2,180.5z"/>
		<path d="M527.5,163.5c-0.5,0.8-0.9,1.8-1,2.9c-0.2,1.1-0.2,2.8-0.1,5c0.1,1.6,0.1,2.7,0,3.4c-0.1,0.7-0.3,1.3-0.6,1.8
			c-0.3,0.5-0.7,0.8-1.1,1.1c-0.8,0.4-1.6,0.5-2.5,0.2c-0.9-0.3-1.7-1-2.3-2c-0.8-1.4-1-2.9-0.6-4.7c0.4-1.8,1.5-3.5,3.3-5l-0.3-0.5
			l-7.2,4.1l0.3,0.5c0.5,0,0.9,0,1.2,0.2c0.3,0.2,0.6,0.4,0.7,0.6c0.2,0.3,0.3,0.7,0.3,1.3c0.1,1,0.3,1.8,0.4,2.4
			c0.2,0.6,0.4,1.2,0.8,1.8c1.1,1.9,2.6,3.2,4.4,3.8c1.9,0.6,3.6,0.4,5.2-0.5c1.3-0.7,2.2-1.7,2.7-3.1c0.5-1.3,0.7-3.4,0.6-6.3
			c-0.1-2-0.1-3.4-0.1-4c0.1-0.8,0.3-1.5,0.6-2.1c0.2-0.4,0.5-0.7,1-0.9c0.7-0.4,1.4-0.4,2.2-0.2c0.8,0.3,1.5,0.9,2.1,1.8
			c0.7,1.2,0.9,2.7,0.5,4.3c-0.4,1.6-1.3,3-2.7,4.2l0.3,0.6l6.3-3.8l-0.2-0.4c-0.6,0.2-1.1,0.3-1.3,0.2c-0.2-0.1-0.4-0.2-0.6-0.5
			c-0.1-0.3-0.2-0.8-0.3-1.6c-0.1-0.8-0.2-1.5-0.3-2c-0.2-0.7-0.4-1.3-0.8-1.9c-1-1.7-2.3-2.8-4-3.3c-1.7-0.5-3.3-0.3-4.8,0.5
			C528.7,162,528,162.7,527.5,163.5z"/>
		<path d="M524.2,149.4l-12.1,7.9c-0.9,0.6-1.5,0.9-1.8,1c-0.4,0.1-0.7,0-1-0.1c-0.4-0.2-0.8-0.6-1.1-1.1l-0.4-0.6l-0.5,0.3l6.3,9.6
			l0.5-0.3l-0.4-0.6c-0.3-0.5-0.5-1-0.5-1.4s0-0.8,0.2-1c0.2-0.3,0.7-0.7,1.7-1.3l12.1-7.9c0.9-0.6,1.5-0.9,1.8-1
			c0.4-0.1,0.7,0,1,0.1c0.4,0.2,0.8,0.6,1.1,1.1l0.4,0.6l0.5-0.3l-6.3-9.6l-0.5,0.3l0.4,0.6c0.3,0.5,0.5,1,0.5,1.4
			c0,0.4,0,0.8-0.2,1C525.7,148.4,525.2,148.8,524.2,149.4z"/>
		<path d="M509.8,129.6l-11.5,8.8c-0.9,0.7-1.5,1-1.7,1.1c-0.4,0.1-0.7,0.1-1,0c-0.4-0.2-0.8-0.5-1.2-1l-0.4-0.6l-0.5,0.4l11.9,15.5
			l6.6-4l-0.4-0.5c-1.7,0.6-3,1-4.1,1.1c-1,0.1-2-0.1-2.8-0.4c-0.8-0.4-1.5-1-2.3-1.9l-1.1-1.5c-0.6-0.8-1-1.4-1.1-1.6
			c-0.1-0.4-0.1-0.7,0.1-1c0.2-0.3,0.7-0.8,1.6-1.5l11.1-8.5c0.9-0.7,1.4-1,1.7-1.1c0.4-0.1,0.7-0.1,1,0.1c0.4,0.2,0.8,0.5,1.2,1
			l0.6,0.8l0.5-0.4l-7.1-9.3l-0.5,0.4l0.4,0.6c0.4,0.5,0.6,0.9,0.6,1.4c0.1,0.4,0,0.8-0.1,1C511.2,128.5,510.6,128.9,509.8,129.6z"
			/>
		<path d="M480.1,118.5c-0.5,3.4,0.6,6.6,3.3,9.4c2.7,2.9,5.8,4.1,9.3,3.8c2.7-0.3,5-1.3,7-3.2c2.4-2.2,3.6-4.9,3.7-8
			c0.1-3.1-1.1-5.9-3.6-8.3c-2.1-2.5-4.7-3.7-7.8-3.9c-3.1-0.1-5.8,0.9-8.2,3.1C481.7,113.5,480.5,115.9,480.1,118.5z M493.9,111.9
			c2.2-0.6,4-0.2,5.4,1.2c0.7,0.8,1.2,1.7,1.3,2.7c0.1,1-0.1,2.2-0.8,3.6c-0.7,1.4-2.1,3.1-4.2,5c-1.8,1.7-3.4,2.8-4.9,3.5
			c-1.5,0.6-2.8,0.9-3.9,0.6c-0.9-0.2-1.7-0.7-2.5-1.5c-1.1-1.2-1.5-2.6-1.3-4.1c0.4-2.2,2-4.6,4.7-7.1
			C490,113.7,492.1,112.4,493.9,111.9z"/>
		<path d="M451.5,97.3l-0.2-0.1l-0.4,0.5l5.7,4.9l0.4-0.5c-0.8-0.6-1.2-1.3-1.4-1.8c-0.1-0.6-0.1-1.1,0.2-1.6
			c0.1-0.2,0.5-0.7,1.2-1.6l10-11.8l-6.3,20.7l0.3,0.3l19.4-9.9l-10.5,12.4c-0.7,0.8-1.2,1.3-1.5,1.4c-0.4,0.2-0.7,0.2-1,0.2
			c-0.4-0.1-0.9-0.3-1.4-0.7l-0.5-0.5l-0.4,0.5l8.8,7.4l0.4-0.5l-0.5-0.5c-0.5-0.4-0.8-0.8-0.9-1.2c-0.1-0.4-0.2-0.7-0.1-1
			c0.1-0.3,0.5-0.9,1.2-1.7l9.4-11.1c0.7-0.8,1.2-1.3,1.4-1.4c0.4-0.2,0.7-0.2,1-0.2c0.4,0.1,0.9,0.3,1.4,0.7l0.5,0.5l0.4-0.5
			l-6.8-5.8l-13.9,7.2l4.6-15l-6.9-5.8l-0.4,0.5l0.5,0.4c0.5,0.4,0.8,0.8,0.9,1.2c0.1,0.4,0.2,0.7,0.1,1c-0.1,0.3-0.5,0.9-1.2,1.7
			l-9,10.6c-0.6,0.8-1,1.2-1.1,1.2c-0.4,0.3-0.8,0.5-1.1,0.6c-0.3,0.1-0.7,0-1.2-0.1C452.3,97.9,451.9,97.6,451.5,97.3z"/>
		<path d="M428.3,58.6c0.2,0.4,0.3,0.7,0.3,1c0,0.3-0.3,0.9-0.9,1.9l-7.1,11.9c-0.5,0.8-0.8,1.3-0.9,1.4c-0.4,0.4-0.7,0.6-1,0.8
			c-0.3,0.1-0.7,0.2-1.2,0.1c-0.4-0.1-0.9-0.2-1.3-0.5L416,75l-0.3,0.5l6.5,3.8l0.3-0.5c-0.9-0.5-1.4-1-1.6-1.6
			c-0.2-0.5-0.3-1.1-0.1-1.6c0.1-0.2,0.4-0.8,1-1.8l7.9-13.3l-2.8,21.5l0.3,0.2l17.5-12.9l-8.3,14c-0.6,0.9-1,1.5-1.2,1.7
			c-0.3,0.2-0.6,0.3-1,0.3c-0.4,0-1-0.2-1.5-0.5l-0.6-0.4l-0.3,0.5l9.9,5.9l0.3-0.5l-0.6-0.4c-0.5-0.3-0.9-0.7-1.1-1
			c-0.2-0.4-0.3-0.7-0.2-1c0-0.3,0.3-0.9,0.9-1.9l7.4-12.4c0.6-0.9,1-1.5,1.2-1.6c0.3-0.2,0.6-0.3,0.9-0.3c0.4,0,1,0.2,1.5,0.5
			l0.6,0.4l0.3-0.5l-7.7-4.6l-12.5,9.4l2.1-15.6l-7.7-4.6l-0.3,0.5l0.6,0.4C427.8,57.9,428.1,58.2,428.3,58.6z"/>
		<path d="M403.1,70.5c2.1,0.9,3.9,1.2,5.5,0.9c1.6-0.3,2.8-1,3.6-1.9c0.8-0.9,1.7-2.5,2.8-4.9l3.4-7.6c0.4-0.8,0.7-1.4,1-1.6
			c0.4-0.4,0.8-0.6,1.3-0.7c0.5-0.1,1,0,1.6,0.3l0.4,0.2l0.2-0.5l-6.9-3.1l-0.2,0.5c0.8,0.4,1.4,0.8,1.7,1.2
			c0.2,0.3,0.3,0.7,0.4,1.1c0,0.5-0.2,1.2-0.6,2l-3.7,8.2c-1,2.1-1.8,3.5-2.6,4.2c-0.8,0.7-1.6,1.1-2.6,1.2c-1,0.1-2,0-3.1-0.5
			c-1-0.4-1.6-1-2.1-1.6c-0.4-0.7-0.7-1.3-0.7-2c0-0.7,0.4-2,1.2-3.7l4.4-9.8c0.5-1.1,0.9-1.8,1.1-2.1c0.3-0.2,0.6-0.4,0.9-0.4
			c0.4,0,0.9,0.1,1.7,0.5l0.5,0.2l0.2-0.5l-10.3-4.6l-0.2,0.5c0.8,0.4,1.4,0.7,1.6,1c0.2,0.3,0.4,0.6,0.4,1s-0.3,1.1-0.8,2.2
			l-4.4,9.8c-0.8,1.7-1.1,3.1-1,4.3c0.1,1.2,0.6,2.4,1.6,3.7C400.1,68.9,401.3,69.8,403.1,70.5z"/>
		<path d="M369.4,57.4l10.7,3.6l0.2-0.6c-1-0.3-1.6-0.6-1.9-0.9c-0.3-0.3-0.5-0.6-0.5-0.9c0-0.3,0.1-1.1,0.5-2.2l2-5.8l1.4,0.5
			l3.5,11.7l6.6,2.2l0.2-0.6c-0.5-0.2-1-0.6-1.3-1c-0.2-0.3-0.5-1-0.8-2.2l-2.6-8.7c1.4,0.1,2.5,0,3.4-0.4c1.4-0.6,2.4-1.7,2.9-3.3
			c0.4-1.3,0.4-2.5,0-3.7c-0.4-1.2-1.2-2.1-2.2-2.9c-1-0.7-2.8-1.5-5.4-2.4l-9.7-3.2l-0.2,0.6c1,0.3,1.6,0.6,1.9,0.9
			c0.3,0.3,0.5,0.6,0.5,0.9c0,0.3-0.1,1.1-0.5,2.2l-4.5,13.5c-0.4,1.1-0.7,1.8-0.9,2.1c-0.2,0.2-0.6,0.4-1,0.5
			c-0.4,0.1-1.1-0.1-2-0.4L369.4,57.4z M383.8,40.3l1.6,0.6c1.7,0.6,2.7,1.3,3.2,2.3c0.5,1,0.5,2.3-0.1,3.9
			c-0.4,1.1-0.9,1.9-1.5,2.5c-0.6,0.5-1.3,0.8-2.1,0.9c-0.8,0-1.9-0.2-3.3-0.7l-0.9-0.3L383.8,40.3z"/>
		<path d="M355.4,54.6c3.8,0.9,7.1,0.2,9.9-2c2.1-1.7,3.4-3.9,4.1-6.6c0.7-3.2,0.3-6.1-1.3-8.7c-1.6-2.6-4.2-4.2-7.6-4.9
			c-3.1-0.9-6-0.5-8.7,1.1c-2.7,1.6-4.4,4-5.1,7.2c-0.7,2.8-0.4,5.5,0.8,7.9C348.8,51.7,351.5,53.7,355.4,54.6z M352.2,42.2
			c0.7-3.1,1.7-5.3,2.9-6.8c1.5-1.8,3.2-2.4,5.2-2c1.1,0.2,1.9,0.8,2.6,1.5c0.7,0.8,1.1,1.9,1.3,3.4c0.2,1.5,0,3.7-0.7,6.5
			c-0.6,2.4-1.3,4.2-2.1,5.6c-0.9,1.4-1.8,2.3-2.9,2.7c-0.8,0.4-1.8,0.4-2.9,0.2c-1.6-0.4-2.7-1.3-3.3-2.7
			C351.4,48.6,351.4,45.8,352.2,42.2z"/>
		<path d="M341.1,50.6l-0.7-0.1c-0.6-0.1-1.1-0.3-1.4-0.5c-0.3-0.3-0.5-0.5-0.6-0.8c-0.1-0.3,0-1,0.1-2.1l2.1-14.3
			c0.2-1.1,0.3-1.8,0.5-2c0.2-0.3,0.5-0.6,0.8-0.7c0.4-0.2,0.9-0.2,1.6-0.1L344,30l0.1-0.6l-11.4-1.6l-0.1,0.6l0.7,0.1
			c0.6,0.1,1.1,0.3,1.4,0.5c0.3,0.3,0.5,0.5,0.6,0.8c0.1,0.3,0,1-0.1,2.1l-2.1,14.3c-0.2,1.1-0.3,1.8-0.5,2
			c-0.2,0.3-0.5,0.6-0.8,0.7c-0.4,0.2-0.9,0.2-1.6,0.1l-0.7-0.1l-0.1,0.6l11.4,1.6L341.1,50.6z"/>
		<path d="M317.4,48.3c1.5-0.2,2.8-0.5,3.8-0.9c1.1-0.4,2-1.1,2.9-1.9c0.8-0.8,1.6-1.8,2.1-3.1c0.6-1.3,0.9-2.7,1-4.2
			c0.1-2.2-0.2-4.3-1.1-6.1c-0.9-1.8-2.3-3.3-4.2-4.3c-1.5-0.8-3.6-1.3-6.2-1.5l-9.8-0.6l0,0.6l0.7,0c0.6,0,1.1,0.2,1.4,0.4
			c0.3,0.2,0.6,0.5,0.7,0.8c0.1,0.3,0.1,1,0,2.1l-1,14.4c-0.1,1.1-0.2,1.8-0.3,2c-0.2,0.3-0.5,0.6-0.8,0.8c-0.4,0.2-0.8,0.2-1.5,0.2
			l-0.7,0l0,0.6l9.8,0.6C315.7,48.3,316.8,48.3,317.4,48.3z M313.1,46.2c-0.1-0.2-0.1-0.8,0-1.7l1.1-17.1c1.8,0.1,3.1,0.4,3.8,0.7
			c1.1,0.5,1.9,1.5,2.5,2.9c0.8,1.7,1.1,4,0.9,6.8c-0.2,3.5-1,6-2.5,7.6c-1,1.2-2.4,1.7-4.2,1.6c-0.6,0-1-0.1-1.2-0.3
			C313.3,46.6,313.2,46.5,313.1,46.2z"/>
		<path d="M299.2,38l-0.3-8.3c0-0.9,0-1.5,0.1-1.9c0.2-0.5,0.5-0.9,0.9-1.1c0.4-0.3,0.9-0.4,1.5-0.4l0.5,0l0-0.6l-7.6,0.3l0,0.6
			c0.9,0,1.6,0.1,2.1,0.3c0.3,0.2,0.6,0.4,0.8,0.8c0.2,0.4,0.3,1.1,0.4,2.1l0.3,9c0.1,2.3-0.1,4-0.5,4.9c-0.4,1-1,1.7-1.8,2.3
			c-0.8,0.6-1.8,0.9-3,0.9c-1,0-1.9-0.1-2.6-0.5c-0.7-0.4-1.2-0.9-1.5-1.5c-0.3-0.6-0.5-1.9-0.6-3.9L287.5,30c0-1.3,0-2,0.1-2.4
			c0.1-0.3,0.3-0.6,0.7-0.8c0.3-0.2,0.9-0.3,1.7-0.3l0.6,0l0-0.6l-11.3,0.4l0,0.6c0.9,0,1.6,0,1.9,0.2s0.6,0.4,0.8,0.7
			c0.2,0.3,0.2,1.1,0.3,2.3l0.4,10.7c0.1,1.8,0.4,3.3,1,4.3c0.6,1.1,1.6,1.9,3.1,2.6c1.1,0.5,2.5,0.7,4.4,0.6
			c2.3-0.1,4.1-0.6,5.3-1.6c1.3-1,2.1-2.1,2.4-3.2C299.1,42.5,299.3,40.6,299.2,38z"/>
		<path d="M254.7,29.4l0.8,5.9l0.6-0.1c0-1.6,0.5-3,1.3-3.9c0.6-0.7,1.6-1.2,3.1-1.3l1.6-0.2l2.2,16.8c0.1,1.1,0.2,1.8,0.1,2
			c-0.1,0.4-0.3,0.7-0.6,0.9c-0.4,0.3-0.9,0.5-1.5,0.5l-0.7,0.1l0.1,0.6l11.4-1.5l-0.1-0.6l-0.7,0.1c-0.6,0.1-1.1,0-1.5-0.1
			c-0.4-0.2-0.7-0.4-0.8-0.6c-0.2-0.3-0.3-0.9-0.5-2.1L267.2,29l1.6-0.2c1-0.1,1.7-0.1,2.2,0c0.8,0.3,1.4,0.7,1.9,1.2
			c0.5,0.5,1,1.5,1.5,2.8l0.6-0.1l-0.8-5.9L254.7,29.4z"/>
		<path d="M236.8,41.9c0.6,0.7,1.5,1.3,2.5,1.8c1,0.5,2.6,1,4.7,1.5c1.5,0.4,2.6,0.7,3.3,1c0.6,0.3,1.1,0.7,1.5,1.1
			c0.4,0.4,0.6,0.9,0.7,1.4c0.2,0.9,0,1.7-0.6,2.5c-0.6,0.8-1.4,1.3-2.6,1.6c-1.5,0.3-3.1,0-4.7-0.9c-1.6-0.9-2.9-2.5-3.8-4.6
			l-0.6,0.1l1.8,8.1l0.6-0.1c0.1-0.5,0.3-0.9,0.5-1.1c0.3-0.3,0.5-0.4,0.8-0.5c0.3-0.1,0.8-0.1,1.3,0c1,0.2,1.8,0.3,2.4,0.3
			c0.6,0,1.3-0.1,2-0.2c2.2-0.5,3.8-1.5,4.9-3.1c1.1-1.6,1.5-3.3,1.1-5.1c-0.3-1.4-1-2.6-2.1-3.5c-1.1-0.9-3.1-1.7-5.8-2.4
			c-2-0.5-3.3-0.9-3.8-1.1c-0.8-0.3-1.4-0.7-1.8-1.2c-0.3-0.3-0.5-0.7-0.6-1.2c-0.2-0.7,0-1.5,0.5-2.2c0.5-0.7,1.3-1.2,2.4-1.4
			c1.4-0.3,2.8,0,4.2,0.8c1.4,0.8,2.5,2.1,3.2,3.8l0.7-0.1l-1.7-7.1l-0.5,0.1c0,0.7-0.1,1.1-0.2,1.3c-0.1,0.2-0.3,0.3-0.6,0.4
			c-0.3,0.1-0.8,0-1.6-0.2c-0.8-0.2-1.4-0.3-2-0.3c-0.7,0-1.4,0-2.1,0.2c-1.9,0.4-3.4,1.4-4.4,2.8c-1,1.5-1.3,3.1-0.9,4.8
			C235.8,40.3,236.2,41.2,236.8,41.9z"/>
		<path d="M207.7,50.9c0.7,0.7,1.6,1.2,2.7,1.5c1,0.4,2.7,0.7,4.9,1c1.6,0.2,2.7,0.4,3.4,0.7c0.7,0.2,1.2,0.5,1.6,0.9
			c0.4,0.4,0.7,0.8,0.9,1.3c0.3,0.8,0.2,1.7-0.3,2.5c-0.5,0.9-1.3,1.5-2.4,1.9c-1.5,0.5-3.1,0.4-4.7-0.3c-1.7-0.7-3.1-2.1-4.3-4.2
			l-0.6,0.2l2.7,7.8L212,64c0-0.5,0.2-0.9,0.4-1.2c0.2-0.3,0.5-0.5,0.7-0.6c0.3-0.1,0.8-0.1,1.3-0.1c1,0.1,1.8,0.1,2.4,0
			c0.6-0.1,1.3-0.2,1.9-0.4c2.1-0.7,3.6-1.9,4.5-3.6c0.9-1.7,1.1-3.4,0.5-5.2c-0.5-1.4-1.3-2.4-2.5-3.2c-1.2-0.8-3.2-1.3-6.1-1.7
			c-2-0.3-3.3-0.5-3.9-0.7c-0.8-0.2-1.5-0.6-1.9-0.9c-0.3-0.3-0.6-0.7-0.7-1.1c-0.2-0.7-0.2-1.5,0.3-2.2c0.4-0.8,1.1-1.3,2.2-1.7
			c1.3-0.5,2.8-0.4,4.3,0.3c1.5,0.7,2.7,1.8,3.6,3.4l0.6-0.2l-2.5-6.9l-0.5,0.2c0.1,0.7,0.1,1.1,0,1.3s-0.3,0.4-0.5,0.5
			c-0.3,0.1-0.8,0.1-1.6,0c-0.8-0.1-1.5-0.1-2-0.1c-0.7,0.1-1.4,0.2-2,0.4c-1.8,0.6-3.2,1.7-4,3.3c-0.8,1.6-0.9,3.2-0.4,4.9
			C206.4,49.4,206.9,50.2,207.7,50.9z"/>
		<path d="M193.7,71.2l-0.2-0.5c-1.1,0.4-1.8,0.6-2.1,0.5c-0.6-0.1-1-0.4-1.2-0.9c-0.2-0.4-0.3-1-0.3-1.8l0-2.3l7.1-3.1l2.2,2
			c0.6,0.5,0.9,0.8,0.9,0.9c0.1,0.2,0.3,0.3,0.3,0.5c0.1,0.3,0.1,0.6,0,0.8c-0.2,0.4-0.7,0.7-1.5,1.1l-0.4,0.2l0.2,0.5l9.7-4.3
			l-0.2-0.6c-0.6,0.2-1.2,0.3-1.7,0.1c-0.6-0.2-1.6-0.9-3-2.2l-14.5-13.3l-0.3,0.1l-0.1,19.2c0,1.8-0.1,3.1-0.4,3.8
			c-0.2,0.7-0.7,1.3-1.4,1.7l0.2,0.5L193.7,71.2z M189.8,56.5l6.1,5.6l-6.1,2.7L189.8,56.5z"/>
		<path d="M162.6,69.4c-0.6-1.5-0.6-2.9-0.2-4.1c0.3-0.9,1.1-1.7,2.4-2.4l1.4-0.8l8.2,14.8c0.5,1,0.8,1.6,0.8,1.9c0,0.4,0,0.7-0.2,1
			c-0.2,0.4-0.6,0.7-1.2,1l-0.6,0.4l0.3,0.5l10.1-5.5l-0.3-0.5l-0.6,0.4c-0.5,0.3-1,0.4-1.4,0.4c-0.4,0-0.8-0.1-1-0.3
			c-0.2-0.2-0.6-0.8-1.2-1.8l-8.2-14.8l1.4-0.8c0.9-0.5,1.6-0.8,2-0.8c0.8,0,1.6,0.1,2.2,0.4c0.7,0.3,1.5,1,2.4,2l0.5-0.3l-2.9-5.2
			l-17.3,9.5l2.9,5.2L162.6,69.4z"/>
		<path d="M146.6,73.3c0.5-0.3,1-0.5,1.4-0.5c0.4,0,0.8,0.1,1,0.2c0.3,0.2,0.7,0.7,1.3,1.7l7.9,12.1c0.6,0.9,0.9,1.5,1,1.8
			c0.1,0.4,0,0.7-0.1,1c-0.2,0.4-0.6,0.8-1.1,1.1l-0.6,0.4l0.3,0.5l9.6-6.2l-0.3-0.5l-0.6,0.4c-0.5,0.3-1,0.5-1.4,0.5
			c-0.4,0-0.8-0.1-1-0.2c-0.3-0.2-0.7-0.7-1.3-1.7l-7.9-12.1c-0.6-0.9-0.9-1.5-1-1.8c-0.1-0.4,0-0.7,0.1-1c0.2-0.4,0.6-0.8,1.1-1.1
			l0.6-0.4l-0.3-0.5l-9.6,6.2l0.3,0.5L146.6,73.3z"/>
		<path d="M135.4,91.4c0.9,0.4,1.9,0.6,3,0.6c1.1,0,2.8-0.2,5-0.6c1.6-0.3,2.7-0.4,3.4-0.4c0.7,0,1.3,0.1,1.8,0.4
			c0.5,0.2,0.9,0.5,1.2,1c0.5,0.7,0.7,1.5,0.5,2.5c-0.2,1-0.8,1.8-1.7,2.5c-1.3,0.9-2.8,1.3-4.6,1.1c-1.8-0.2-3.6-1-5.4-2.6
			l-0.5,0.4l5,6.6l0.5-0.4c-0.1-0.5-0.1-0.9,0-1.2c0.1-0.4,0.3-0.6,0.5-0.8c0.3-0.2,0.7-0.4,1.2-0.5c1-0.2,1.8-0.5,2.3-0.8
			c0.6-0.3,1.1-0.6,1.7-1c1.8-1.3,2.8-2.9,3.2-4.9c0.4-1.9,0-3.6-1.1-5.1c-0.9-1.2-2-1.9-3.4-2.3c-1.4-0.4-3.5-0.3-6.3,0.2
			c-2,0.4-3.3,0.6-3.9,0.6c-0.9,0-1.6-0.1-2.1-0.3c-0.4-0.2-0.8-0.4-1-0.8c-0.5-0.6-0.6-1.3-0.4-2.2c0.2-0.9,0.7-1.6,1.6-2.3
			c1.1-0.9,2.5-1.2,4.2-1c1.7,0.2,3.1,0.9,4.5,2.2l0.5-0.4l-4.5-5.8l-0.4,0.3c0.3,0.6,0.4,1,0.4,1.3c0,0.2-0.2,0.4-0.4,0.6
			c-0.2,0.2-0.7,0.3-1.5,0.5c-0.8,0.2-1.4,0.3-1.9,0.5c-0.6,0.3-1.2,0.6-1.8,1c-1.6,1.2-2.5,2.6-2.8,4.4c-0.3,1.8,0.1,3.3,1.1,4.7
			C133.7,90.4,134.5,91,135.4,91.4z"/>
		<path d="M110.6,102.6c0.4-0.1,0.8-0.1,1.1,0c0.3,0.1,0.9,0.6,1.7,1.5l9.5,10.6c0.8,0.9,1.2,1.5,1.3,1.8c0.1,0.3,0.1,0.7-0.1,1.1
			c-0.1,0.4-0.6,0.9-1.4,1.6l0.4,0.4l8.4-7.5l-0.4-0.4c-0.7,0.7-1.3,1.1-1.7,1.2c-0.4,0.1-0.8,0.1-1.1,0c-0.3-0.1-0.9-0.6-1.7-1.5
			l-4.1-4.6l1.1-1l11.9,2.7l5.2-4.6l-0.4-0.4c-0.5,0.4-1,0.6-1.5,0.6c-0.4,0-1.1-0.1-2.3-0.4l-8.9-2c0.8-1.1,1.2-2.2,1.3-3.2
			c0.2-1.6-0.3-3-1.4-4.2c-0.9-1-1.9-1.6-3.2-1.8c-1.2-0.2-2.4-0.1-3.6,0.5c-1.2,0.5-2.7,1.7-4.7,3.5l-7.6,6.8l0.4,0.4
			C109.6,103.1,110.2,102.7,110.6,102.6z M116.6,97.6c1.3-1.2,2.5-1.7,3.6-1.6c1.1,0.1,2.2,0.7,3.3,2c0.8,0.9,1.2,1.7,1.4,2.5
			c0.2,0.8,0.1,1.6-0.3,2.3c-0.4,0.7-1.1,1.6-2.2,2.6l-0.7,0.6l-6.4-7.2L116.6,97.6z"/>
		<path d="M92.3,121.5c0.5-0.5,1-0.8,1.5-0.9c0.3-0.1,0.7,0,1,0.2c0.2,0.1,0.7,0.5,1.4,1.2l10.6,9.8c0.8,0.7,1.3,1.3,1.4,1.5
			c0.2,0.4,0.2,0.7,0.1,1c-0.1,0.4-0.4,0.9-0.8,1.4l-0.5,0.5l0.4,0.4l12.9-13.9l-4.5-5.5l-0.4,0.4c1.1,1.7,1.5,3.4,1.4,4.9
			c-0.1,1.6-0.9,3.1-2.3,4.6l-0.9,1c-0.4,0.5-0.8,0.7-1.1,0.8c-0.3,0.1-0.6,0.1-0.9,0c-0.3-0.1-0.8-0.6-1.7-1.4l-4.5-4.2
			c0.7-0.8,1.4-1.3,1.9-1.5c0.6-0.2,1.3-0.2,2.2,0c0.9,0.2,1.8,0.7,2.8,1.5l0.4-0.5l-8.4-7.8l-0.4,0.5c1.1,1.3,1.8,2.5,2,3.5
			c0.2,1.1-0.1,2.1-1.1,3.1l-0.3,0.3l-6.6-6.1l1.5-1.7c1.1-1.2,2-2,2.5-2.3c0.9-0.5,1.9-0.8,2.8-0.7c0.9,0.1,2,0.5,3.4,1.4l0.4-0.5
			l-4.8-4.4l-12.5,13.5l0.4,0.4L92.3,121.5z"/>
		<path d="M76.6,142.7c0.5,0,1.8,0.2,4.1,0.8l18.4,4.6l0.3-0.4l-8.8-16.2c-1-1.9-1.6-3.2-1.8-3.9c-0.2-0.9-0.1-1.8,0.3-2.5l-0.5-0.4
			l-4.4,5.7l0.5,0.4c0.5-0.6,0.9-1,1.3-1.3c0.3-0.2,0.6-0.3,0.9-0.3c0.3,0,0.6,0.1,0.8,0.3c0.2,0.2,0.5,0.4,0.7,0.8
			c0.2,0.3,0.7,1.1,1.3,2.2l5.1,9.4l-11.5-2.9c-1.2-0.3-2-0.5-2.2-0.6c-0.3-0.1-0.5-0.2-0.6-0.3c-0.2-0.2-0.4-0.4-0.3-0.7
			c0-0.4,0.3-1,0.9-1.8l0.2-0.3l-0.5-0.4l-6.4,8.4l0.5,0.4C75.6,143,76.1,142.7,76.6,142.7z"/>
		<path d="M67.2,155.8c0.3-0.5,0.7-0.9,1.1-1.1c0.4-0.2,0.7-0.3,1-0.2c0.3,0.1,0.9,0.4,1.9,1l12.1,7.8c0.9,0.6,1.5,1,1.6,1.3
			c0.2,0.3,0.3,0.6,0.3,1c0,0.4-0.2,0.9-0.6,1.5l-0.4,0.6l0.5,0.3l6.2-9.6l-0.5-0.3l-0.4,0.6c-0.3,0.5-0.7,0.9-1.1,1.1
			c-0.4,0.2-0.7,0.3-1,0.2c-0.3,0-0.9-0.4-1.9-1L74,151.1c-0.9-0.6-1.5-1-1.6-1.3c-0.2-0.3-0.3-0.7-0.3-1c0-0.5,0.2-0.9,0.5-1.5
			l0.4-0.6l-0.5-0.3l-6.2,9.6l0.5,0.3L67.2,155.8z"/>
		<path d="M54.7,178.7c0.3-0.2,0.9-0.4,1.6-0.5L57,178l13.6,7.4c1,0.6,1.6,1.2,1.8,1.8c0.2,0.6,0,1.5-0.5,2.6l0.5,0.3l3.7-6.9
			l-0.5-0.3l-0.2,0.5c-0.4,0.7-0.9,1.1-1.5,1.4c-0.7,0.3-1.6,0.1-2.7-0.5L59,177.7l23.1-4.4l0.3-0.5l-16.1-8.7
			c-0.9-0.5-1.5-0.9-1.8-1.3c-0.3-0.4-0.4-0.7-0.5-1.1c0-0.4,0.1-1,0.5-1.9l-0.5-0.3l-3.5,6.4l0.5,0.3c0.6-1.1,1.2-1.7,2-1.9
			c0.6-0.1,1.5,0.1,2.6,0.8l8.3,4.5l-17.1,3.1l-3.7,6.9l0.5,0.3C54,179.3,54.4,178.9,54.7,178.7z"/>
		<path d="M44.2,202.7c0.3-0.2,0.6-0.4,1-0.4c0.3,0,1.1,0.2,2.3,0.7l9.9,4.2c1.7,0.7,3.1,1,4.4,0.9c1.2-0.1,2.4-0.7,3.6-1.7
			c0.9-0.8,1.7-2,2.4-3.8c0.9-2.1,1.1-3.9,0.8-5.5c-0.4-1.6-1-2.8-2-3.5c-0.9-0.8-2.6-1.6-5-2.6l-7.7-3.2c-0.8-0.3-1.4-0.7-1.6-0.9
			c-0.4-0.4-0.6-0.8-0.7-1.3c-0.1-0.5,0-1,0.2-1.6l0.2-0.4l-0.6-0.2l-2.9,7l0.6,0.2c0.3-0.8,0.7-1.4,1.1-1.8
			c0.3-0.2,0.6-0.4,1.1-0.4c0.5,0,1.2,0.1,2.1,0.5l8.3,3.5c2.2,0.9,3.6,1.7,4.3,2.5c0.7,0.7,1.1,1.6,1.3,2.6c0.2,1,0,2-0.4,3.1
			c-0.4,1-0.9,1.7-1.6,2.1c-0.7,0.5-1.3,0.7-2,0.7c-0.7,0-2-0.3-3.8-1.1l-9.9-4.2c-1.2-0.5-1.9-0.8-2.1-1.1
			c-0.2-0.2-0.4-0.6-0.4-0.9c0-0.4,0.1-0.9,0.4-1.7l0.2-0.5l-0.6-0.2l-4.4,10.5l0.6,0.2C43.6,203.5,43.9,203,44.2,202.7z"/>
		<path d="M48.8,221c-1.2-0.4-2.4-0.2-3.5,0.4c-1.1,0.6-1.9,1.5-2.2,2.8c-0.4,1.2-0.2,2.4,0.4,3.5c0.6,1.1,1.5,1.9,2.8,2.2
			c1.2,0.4,2.4,0.2,3.5-0.4c1.1-0.6,1.9-1.5,2.2-2.8c0.4-1.2,0.2-2.4-0.4-3.5C50.9,222.1,50,221.3,48.8,221z"/>
		<path d="M30.1,253.8c0.1-0.6,0.3-1.1,0.6-1.4c0.3-0.3,0.6-0.5,0.9-0.6c0.3-0.1,1,0,2.1,0.2l14.2,2.7c1.1,0.2,1.7,0.4,2,0.6
			c0.3,0.2,0.5,0.5,0.6,0.8c0.2,0.4,0.2,1,0,1.6l-0.1,0.7l0.6,0.1l2.2-11.3l-0.6-0.1l-0.1,0.7c-0.1,0.6-0.3,1.1-0.6,1.4
			s-0.6,0.5-0.9,0.6c-0.3,0.1-1,0-2.1-0.2l-14.2-2.7c-1.1-0.2-1.7-0.4-2-0.6c-0.3-0.2-0.5-0.5-0.6-0.8c-0.1-0.4-0.2-0.9,0-1.6
			l0.1-0.7l-0.6-0.1l-2.2,11.3l0.6,0.1L30.1,253.8z"/>
		<path d="M32.3,277.7c-1.6-0.4-2.7-1.2-3.5-2.2c-0.5-0.7-0.7-1.8-0.6-3.3l0.2-1.6l16.8,2c1.1,0.1,1.8,0.3,2,0.4
			c0.3,0.2,0.6,0.5,0.7,0.8c0.2,0.4,0.2,0.9,0.2,1.6l-0.1,0.7l0.6,0.1l1.4-11.4l-0.6-0.1l-0.1,0.7c-0.1,0.6-0.2,1.1-0.5,1.4
			c-0.3,0.3-0.5,0.5-0.8,0.6c-0.3,0.1-1,0.1-2.1-0.1l-16.8-2l0.2-1.6c0.1-1,0.3-1.7,0.5-2.1c0.4-0.7,1-1.2,1.6-1.6
			c0.6-0.3,1.7-0.6,3.1-0.8l0.1-0.6l-5.9-0.7l-2.3,19.6l5.9,0.7L32.3,277.7z"/>
		<path d="M45.8,300.9c0.5,0.5,0.8,1.2,0.9,2l0.6,0l0.3-7.3l-0.6,0c-0.1,1.1-0.3,1.9-0.5,2.1c-0.3,0.5-0.8,0.7-1.4,0.7
			c-0.5,0-1-0.2-1.7-0.5l-2.1-1l0.3-7.8l2.8-1.1c0.7-0.3,1.1-0.4,1.2-0.4c0.2-0.1,0.4-0.1,0.6-0.1c0.3,0,0.6,0.1,0.7,0.4
			c0.2,0.4,0.3,1,0.3,1.8l0,0.4l0.6,0l0.4-10.6l-0.6,0c-0.1,0.7-0.3,1.2-0.6,1.5c-0.5,0.5-1.6,1.1-3.3,1.7l-18.3,7.3l0,0.3l17.2,8.5
			C44.2,299.7,45.3,300.4,45.8,300.9z M40.1,296.3l-7.4-3.6l7.7-3L40.1,296.3z"/>
		<path d="M32.3,321.9c-1.6-0.2-2.9-0.7-3.8-1.6c-0.7-0.6-1-1.7-1.1-3.2l-0.1-1.6l16.9-0.8c1.1-0.1,1.8,0,2,0.1
			c0.4,0.1,0.6,0.4,0.8,0.6c0.2,0.4,0.4,0.9,0.4,1.5l0,0.7l0.6,0l-0.5-11.5l-0.6,0l0,0.7c0,0.6-0.1,1.1-0.2,1.5
			c-0.2,0.4-0.4,0.6-0.7,0.8c-0.3,0.1-1,0.2-2.1,0.3L27,310.3l-0.1-1.6c0-1,0-1.7,0.2-2.2c0.3-0.8,0.8-1.3,1.3-1.8
			c0.6-0.5,1.5-0.9,2.9-1.3l0-0.6l-5.9,0.3l0.9,19.7l5.9-0.3L32.3,321.9z"/>
		<path d="M45.9,332.7c1.1-0.1,1.8-0.2,2-0.1c0.4,0.1,0.7,0.3,0.9,0.6c0.3,0.4,0.4,0.9,0.5,1.5l0.1,0.7l0.6-0.1L48.6,324L48,324
			l0.1,0.7c0.1,0.6,0,1.1-0.1,1.5c-0.2,0.4-0.4,0.7-0.6,0.8c-0.3,0.2-1,0.3-2.1,0.4l-14.3,1.7c-1.1,0.1-1.8,0.1-2,0.1
			c-0.4-0.1-0.7-0.3-0.8-0.6c-0.3-0.4-0.4-0.9-0.5-1.5l-0.1-0.7l-0.6,0.1l1.3,11.4l0.6-0.1l-0.1-0.7c-0.1-0.6,0-1.1,0.1-1.5
			c0.2-0.4,0.4-0.7,0.6-0.8s1-0.3,2.1-0.4L45.9,332.7z"/>
		<path d="M32.9,359.3c0.1-0.4,0.3-0.7,0.6-0.8c0.3-0.2,0.9-0.4,2-0.6l14.2-2.7c1.1-0.2,1.8-0.3,2-0.2c0.4,0.1,0.7,0.2,0.9,0.5
			c0.3,0.3,0.5,0.8,0.6,1.4l0.1,0.7l0.6-0.1l-3.7-19.2l-7.7,0.6l0.1,0.7c1.8,0.2,3.2,0.5,4.2,0.8c1,0.4,1.7,0.9,2.3,1.6
			c0.5,0.7,0.9,1.6,1.1,2.7l0.3,1.8c0.2,1,0.3,1.7,0.2,2c-0.1,0.4-0.3,0.7-0.5,0.9c-0.3,0.2-1,0.4-2.1,0.6l-13.7,2.6
			c-1.1,0.2-1.8,0.3-2,0.2c-0.4-0.1-0.7-0.3-0.9-0.5c-0.3-0.3-0.5-0.8-0.6-1.4l-0.2-0.9l-0.6,0.1l2.2,11.5l0.6-0.1l-0.1-0.7
			C32.7,360.2,32.7,359.7,32.9,359.3z"/>
		<path d="M37.1,372.5c0.2-0.2,0.9-0.4,2-0.7l14-3.7c1.1-0.3,1.7-0.4,2-0.4c0.4,0,0.7,0.2,0.9,0.4c0.3,0.3,0.6,0.8,0.7,1.4l0.2,0.7
			l0.6-0.2l-3-11.1l-0.6,0.2l0.2,0.7c0.2,0.6,0.2,1.1,0.1,1.5c-0.1,0.4-0.3,0.7-0.5,0.9c-0.2,0.2-0.9,0.4-2,0.7l-14,3.7
			c-1.1,0.3-1.7,0.4-2,0.4c-0.4-0.1-0.7-0.2-0.9-0.4c-0.3-0.3-0.6-0.8-0.7-1.4l-0.2-0.7l-0.6,0.2l3,11.1l0.6-0.2l-0.2-0.7
			c-0.2-0.6-0.2-1.1-0.1-1.5C36.7,373,36.8,372.7,37.1,372.5z"/>
		<path d="M49,395.5c-1.6,0.3-3,0.1-4.1-0.5c-0.8-0.4-1.5-1.3-1.9-2.7l-0.5-1.5l16-5.5c1-0.4,1.7-0.5,2-0.5c0.4,0,0.7,0.2,1,0.4
			c0.3,0.3,0.6,0.7,0.8,1.3l0.2,0.7L63,387l-3.7-10.9l-0.6,0.2L59,377c0.2,0.6,0.3,1.1,0.2,1.5c-0.1,0.4-0.2,0.7-0.5,0.9
			c-0.2,0.2-0.9,0.5-1.9,0.9l-16,5.5l-0.5-1.5c-0.3-1-0.5-1.7-0.4-2.1c0.1-0.8,0.4-1.5,0.8-2.1c0.4-0.6,1.2-1.3,2.4-2l-0.2-0.6
			l-5.6,1.9l6.4,18.7l5.6-1.9L49,395.5z"/>
		<path d="M56.6,418.1l9.8-4.4c1.7-0.8,2.9-1.6,3.6-2.6c0.7-1,1.1-2.2,1.2-3.8c0-1.2-0.3-2.6-1.1-4.3c-0.9-2.1-2.1-3.5-3.5-4.3
			c-1.4-0.8-2.7-1.1-3.9-1c-1.2,0.2-3,0.8-5.3,1.8l-7.6,3.4c-0.8,0.4-1.4,0.6-1.8,0.6c-0.5,0-1-0.1-1.4-0.4c-0.4-0.3-0.7-0.7-1-1.3
			l-0.2-0.4l-0.5,0.2l3.1,6.9l0.5-0.2c-0.4-0.8-0.5-1.5-0.5-2c0-0.4,0.2-0.7,0.5-1.1c0.3-0.4,0.9-0.7,1.8-1.1l8.2-3.7
			c2.1-1,3.7-1.4,4.7-1.4c1,0,2,0.3,2.8,0.8c0.8,0.5,1.5,1.4,2,2.4c0.4,0.9,0.6,1.8,0.5,2.6c-0.1,0.8-0.4,1.5-0.8,2
			c-0.5,0.5-1.6,1.2-3.4,2l-9.8,4.4c-1.1,0.5-1.9,0.8-2.2,0.8s-0.7-0.1-1-0.3c-0.3-0.2-0.6-0.7-1-1.5l-0.2-0.5l-0.5,0.2l4.6,10.3
			l0.5-0.2c-0.4-0.8-0.6-1.5-0.5-1.8c0-0.4,0.2-0.7,0.4-1C54.8,419,55.5,418.6,56.6,418.1z"/>
		<path d="M72.8,447.1l12.3-7.5c0.9-0.6,1.5-0.9,1.8-0.9c0.4-0.1,0.7,0,1,0.1c0.4,0.2,0.8,0.6,1.1,1.1l0.4,0.6l0.5-0.3L80.1,424
			l-6.5,2.8l0.3,0.5c1.9-0.6,3.6-0.6,5.1,0c1.5,0.6,2.7,1.7,3.8,3.5l0.7,1.1c0.3,0.5,0.5,1,0.5,1.3c0,0.3-0.1,0.6-0.3,0.8
			c-0.2,0.2-0.8,0.7-1.8,1.3l-5.3,3.2c-0.5-0.9-0.8-1.6-0.9-2.3c-0.1-0.6,0.2-1.3,0.6-2.1c0.5-0.8,1.2-1.5,2.2-2.3l-0.3-0.5l-9.8,6
			l0.3,0.5c1.5-0.7,2.9-1.1,3.9-1c1.1,0.1,2,0.7,2.7,1.9l0.2,0.4l-7.6,4.7l-1.2-1.9c-0.9-1.4-1.4-2.4-1.5-3.1c-0.3-1.1-0.2-2,0-2.8
			c0.3-0.8,1-1.8,2.2-2.9l-0.3-0.5l-5.5,3.4l9.6,15.7l0.5-0.3l-0.4-0.6c-0.4-0.6-0.5-1.2-0.5-1.7c0-0.4,0.2-0.7,0.4-1
			C71.5,447.9,72,447.6,72.8,447.1z"/>
		<path d="M102.1,459.3c0.7,0.1,1.4,0.4,1.9,1l0.5-0.4l-4.4-5.9l-0.5,0.4c0.6,1,0.9,1.6,1,2c0.1,0.6-0.2,1-0.6,1.4
			c-0.4,0.3-0.9,0.5-1.7,0.7L96,459l-4.6-6.2l1.5-2.6c0.4-0.7,0.6-1,0.7-1.1c0.1-0.2,0.3-0.3,0.4-0.4c0.3-0.2,0.5-0.2,0.8-0.2
			c0.4,0.1,0.8,0.5,1.4,1.2l0.3,0.4l0.5-0.4l-6.3-8.5l-0.5,0.4c0.4,0.6,0.5,1.1,0.5,1.6c-0.1,0.7-0.6,1.8-1.5,3.4l-9.7,17.1l0.2,0.2
			l18.7-4.2C100.1,459.4,101.3,459.2,102.1,459.3z M86.7,461.1l4.1-7.1l4,5.3L86.7,461.1z"/>
		<path d="M115.7,479.7c0.6-1.9,0.7-3.9,0.2-5.8c-0.5-2-1.6-3.8-3.2-5.6c-1.2-1.3-2.5-2.3-3.8-2.9c-1.3-0.6-2.9-0.9-4.7-1l-1.4,1.3
			c2-0.1,3.5,0.1,4.8,0.6c1.2,0.4,2.3,1.2,3.2,2.2c1.1,1.2,1.7,2.5,1.8,3.9c0.1,1.3-0.3,2.7-1.1,4.2c-0.9,1.5-2,2.8-3.5,4.2
			c-1.5,1.3-3.1,2.3-4.7,2.9c-1.3,0.5-2.6,0.5-4,0.2c-1.4-0.3-2.5-1-3.4-2c-1.1-1.2-1.7-2.7-1.8-4.3c-0.1-1.7,0.4-3.3,1.6-5
			l-0.4-0.5l-5.6,5.1l0.4,0.5c0.5-0.3,0.9-0.5,1.2-0.4c0.4,0,0.7,0.2,0.9,0.4c0.2,0.2,0.5,0.8,0.8,1.8c0.7,1.7,1.5,3.2,2.5,4.3
			c1.4,1.5,3.1,2.7,5.1,3.3c2,0.7,4.1,0.8,6.2,0.3c2.1-0.5,4-1.4,5.5-2.8C114,483.3,115,481.6,115.7,479.7z"/>
		<path d="M114.8,501.1c-0.1-0.4-0.1-0.7,0-1c0.1-0.3,0.5-0.8,1.3-1.7l9.9-10.5c0.8-0.8,1.3-1.3,1.5-1.4c0.4-0.2,0.7-0.2,1-0.1
			c0.4,0.1,0.9,0.4,1.3,0.8l0.5,0.5l0.4-0.4l-8.3-7.9l-0.4,0.4l0.5,0.5c0.4,0.4,0.7,0.8,0.9,1.2c0.1,0.4,0.1,0.7,0,1
			c-0.1,0.3-0.5,0.8-1.3,1.7l-9.9,10.5c-0.8,0.8-1.3,1.3-1.5,1.4c-0.4,0.2-0.7,0.2-1,0.1c-0.4-0.1-0.9-0.4-1.3-0.8l-0.5-0.5
			l-0.4,0.4l8.3,7.9l0.4-0.4l-0.5-0.5C115.2,501.9,114.9,501.5,114.8,501.1z"/>
		<path d="M133.4,516.9c-0.1-0.4-0.2-0.7-0.1-1c0.1-0.3,0.5-0.9,1.2-1.7l9.1-11.2c0.7-0.9,1.2-1.3,1.4-1.5c0.3-0.2,0.7-0.3,1-0.2
			c0.4,0.1,0.9,0.3,1.4,0.7l0.6,0.5l0.4-0.5l-15.1-12.3l-5.5,5.4l0.5,0.4c1.5-1,2.7-1.7,3.7-2s1.9-0.4,2.8-0.2
			c0.9,0.2,1.7,0.6,2.6,1.4l1.4,1.2c0.8,0.7,1.3,1.1,1.4,1.4c0.2,0.4,0.3,0.7,0.2,1c-0.1,0.3-0.5,0.9-1.2,1.8l-8.9,10.8
			c-0.7,0.9-1.2,1.3-1.4,1.5c-0.4,0.2-0.7,0.2-1,0.2c-0.4-0.1-0.9-0.3-1.4-0.7l-0.7-0.6l-0.4,0.5l9.1,7.4l0.4-0.5l-0.6-0.5
			C133.9,517.7,133.6,517.3,133.4,516.9z"/>
		<path d="M153.7,531.1c-0.2-0.4-0.3-0.7-0.2-1c0.1-0.3,0.4-1,1.1-2l8-11.8c0.7-1,1.1-1.6,1.4-1.7c0.3-0.2,0.6-0.2,1-0.2
			s1,0.4,1.9,0.9l0.3-0.5l-9.2-6.2c-2.6-1.7-4.9-2.5-7-2.4c-1.7,0.2-3,0.9-3.9,2.3c-0.9,1.3-1.1,2.7-0.6,4.2c0.3,1,1.2,2.4,2.6,3.9
			c-1.9-0.7-3.4-0.9-4.5-0.6c-1.1,0.3-1.9,0.8-2.5,1.7c-0.6,0.8-0.8,1.8-0.8,2.9c0,1.1,0.3,2.1,0.9,3.1c0.6,1,2,2.1,4.1,3.5l8.7,5.9
			l0.3-0.5C154.4,531.9,153.9,531.5,153.7,531.1z M151.8,511.5c0.5-0.7,1.1-1.3,1.8-1.7c0.7-0.4,1.5-0.5,2.3-0.4
			c0.8,0.1,1.6,0.4,2.3,0.9c0.5,0.3,0.8,0.7,0.8,1.1c0.1,0.4,0,0.9-0.4,1.3l-0.5,0.7l-3.9,5.8c-1.4-0.9-2.3-1.7-2.8-2.5
			c-0.5-0.7-0.7-1.6-0.7-2.5C150.9,513.2,151.3,512.4,151.8,511.5z M146.2,525.1c-0.4-0.7-0.6-1.4-0.6-2.1c0-0.7,0.3-1.5,0.9-2.3
			c0.5-0.8,1.2-1.4,1.8-1.7c0.7-0.3,1.4-0.4,2.2-0.3c0.8,0.1,1.8,0.6,3.1,1.5l-4.8,7.2C147.5,526.5,146.7,525.7,146.2,525.1z"/>
		<path d="M179.2,520.9c-2-1.1-3.8-1.5-5.4-1.3c-1.6,0.2-2.8,0.7-3.7,1.6c-0.8,0.8-1.9,2.4-3.1,4.7l-4,7.3c-0.4,0.8-0.8,1.3-1.1,1.5
			c-0.4,0.3-0.8,0.5-1.3,0.6c-0.5,0-1-0.1-1.5-0.4l-0.4-0.2l-0.3,0.5l6.7,3.6l0.3-0.5c-0.8-0.4-1.3-0.9-1.6-1.3
			c-0.2-0.3-0.3-0.7-0.3-1.1c0-0.5,0.3-1.1,0.7-2l4.3-7.9c1.1-2,2.1-3.4,2.9-4c0.8-0.6,1.7-1,2.7-1c1-0.1,2,0.2,3.1,0.8
			c0.9,0.5,1.6,1.1,2,1.8c0.4,0.7,0.6,1.4,0.5,2.1c0,0.7-0.5,1.9-1.5,3.6l-5.1,9.4c-0.6,1.1-1,1.8-1.3,2c-0.3,0.2-0.6,0.3-1,0.3
			c-0.4,0-0.9-0.2-1.7-0.6l-0.5-0.3l-0.3,0.5l10,5.4l0.3-0.5c-0.8-0.4-1.3-0.8-1.6-1.1c-0.2-0.3-0.3-0.7-0.3-1
			c0-0.3,0.3-1.1,0.9-2.2l5.2-9.4c0.9-1.6,1.3-3,1.3-4.2c0-1.2-0.4-2.5-1.4-3.8C182,522.7,180.9,521.8,179.2,520.9z"/>
		<path d="M197.2,552.5c0-0.3,0.2-1.1,0.7-2.1l5.7-13.1c0.5-1.1,0.8-1.7,1.1-2c0.3-0.2,0.6-0.3,1-0.4c0.4,0,1.1,0.2,2,0.6l0.2-0.6
			l-10.2-4.4l-0.2,0.6c0.9,0.4,1.5,0.7,1.8,1.1c0.3,0.3,0.4,0.6,0.4,1c0,0.3-0.2,1.1-0.7,2.1l-2.4,5.6c-2.3-1-4-1.6-5-1.8
			c-1.6-0.3-3-0.1-4.2,0.4c-1.2,0.6-2.1,1.5-2.7,2.8c-0.7,1.5-0.6,3.1,0.2,4.7c0.8,1.6,2.7,3,5.6,4.2l8.8,3.8l0.2-0.6
			c-0.9-0.4-1.5-0.8-1.8-1.1C197.3,553.2,197.2,552.9,197.2,552.5z M192.2,550.8l-0.6-0.3c-1.3-0.6-2.1-1.3-2.5-2.3
			c-0.4-1-0.2-2.2,0.4-3.7c0.7-1.5,1.5-2.5,2.4-2.9c1-0.4,2.1-0.4,3.3,0.1c0.2,0.1,0.4,0.2,0.7,0.4L192.2,550.8z"/>
		<path d="M220.8,540.2l0.2-0.6l-10.8-3.8l-0.2,0.6l0.7,0.2c0.6,0.2,1,0.5,1.3,0.8s0.4,0.6,0.4,0.9c0,0.3-0.2,1-0.5,2l-4.8,13.6
			c-0.4,1-0.7,1.7-0.8,1.9c-0.3,0.3-0.6,0.5-0.9,0.5c-0.4,0.1-1,0-1.6-0.2l-0.7-0.2l-0.2,0.6l10.8,3.8l0.2-0.6l-0.7-0.2
			c-0.6-0.2-1-0.5-1.3-0.8c-0.3-0.3-0.4-0.6-0.4-0.9c0-0.3,0.2-1,0.5-2l4.8-13.6c0.4-1,0.6-1.7,0.8-1.9c0.3-0.3,0.6-0.5,0.9-0.5
			c0.4-0.1,1,0,1.6,0.2L220.8,540.2z"/>
		<path d="M222,547.3l0.6,0.2c1-1.7,2.3-2.9,3.7-3.5c1.4-0.6,3.2-0.6,5.1-0.1l1.3,0.3c0.6,0.2,1,0.4,1.2,0.6
			c0.2,0.2,0.4,0.5,0.4,0.8c0,0.3-0.1,1-0.4,2.2l-1.6,6c-1-0.3-1.7-0.6-2.2-1s-0.8-1.1-1-1.9c-0.2-0.9-0.2-1.9,0-3.2l-0.6-0.2
			l-3,11.1l0.6,0.2c0.6-1.6,1.3-2.7,2.2-3.4c0.8-0.7,1.9-0.8,3.3-0.5l0.4,0.1l-2.4,8.6l-2.2-0.6c-1.6-0.4-2.7-0.8-3.2-1.2
			c-0.9-0.6-1.6-1.3-1.9-2.1c-0.4-0.8-0.5-2-0.4-3.6l-0.6-0.2l-1.7,6.3l17.7,4.8l0.2-0.6l-0.7-0.2c-0.7-0.2-1.2-0.5-1.5-0.9
			c-0.2-0.3-0.3-0.6-0.4-1c0-0.2,0.1-0.8,0.4-1.8l3.8-13.9c0.3-1.1,0.5-1.7,0.7-1.9c0.2-0.3,0.5-0.5,0.8-0.6c0.4-0.1,1-0.1,1.6,0.1
			l0.7,0.2l0.2-0.6l-18.3-5L222,547.3z"/>
		<path d="M256.2,548.9c1,0.2,1.6,0.4,2,0.6c0.3,0.2,0.5,0.5,0.6,0.9c0.1,0.3,0,1.1-0.2,2.2l-1.1,6.1l-1.4-0.2l-5.2-11.1l-6.8-1.2
			l-0.1,0.6c0.6,0.1,1,0.4,1.4,0.8c0.2,0.3,0.6,1,1.1,2l3.9,8.2c-1.4,0.1-2.5,0.4-3.3,0.9c-1.3,0.8-2.1,2.1-2.4,3.7
			c-0.2,1.3,0,2.5,0.5,3.6c0.6,1.1,1.5,2,2.6,2.5c1.1,0.6,3,1.1,5.6,1.6l10.1,1.8l0.1-0.6c-1-0.2-1.6-0.4-2-0.6
			c-0.3-0.2-0.5-0.5-0.6-0.9c-0.1-0.3,0-1.1,0.2-2.2l2.5-14c0.2-1.2,0.4-1.9,0.6-2.2c0.2-0.3,0.5-0.5,0.9-0.6
			c0.4-0.1,1.1-0.1,2.1,0.1l0.1-0.6l-11.1-2L256.2,548.9z M255.7,569.3l-1.7-0.3c-1.7-0.3-2.9-0.9-3.5-1.8c-0.6-0.9-0.8-2.2-0.5-3.9
			c0.2-1.1,0.6-2,1.1-2.7c0.5-0.6,1.2-1,2-1.2c0.8-0.1,1.9-0.1,3.4,0.2l0.9,0.2L255.7,569.3z"/>
		<path d="M293.5,552.6c-0.3,0.2-0.6,0.3-0.9,0.3c-0.3,0-0.8-0.1-1.3-0.4c-0.9-0.4-1.7-0.7-2.3-0.9c-0.6-0.2-1.3-0.3-1.9-0.3
			c-2.2-0.1-4,0.5-5.5,1.7c-1.5,1.2-2.3,2.8-2.4,4.6c-0.1,1.4,0.3,2.8,1.1,3.9c0.8,1.2,2.5,2.4,5,3.8c1.8,1,2.9,1.7,3.4,2.1
			c0.7,0.5,1.1,1.1,1.4,1.6c0.2,0.4,0.3,0.8,0.3,1.3c0,0.8-0.4,1.4-1.1,2c-0.7,0.6-1.6,0.8-2.7,0.8c-1.4-0.1-2.7-0.7-3.9-1.9
			c-1.2-1.2-1.9-2.7-2.1-4.5l-0.7,0l-0.2,7.3l0.5,0c0.2-0.6,0.3-1.1,0.5-1.2c0.2-0.2,0.4-0.2,0.7-0.2c0.3,0,0.8,0.2,1.5,0.6
			c0.7,0.4,1.3,0.7,1.8,0.8c0.7,0.2,1.3,0.3,2.1,0.4c1.9,0.1,3.6-0.4,4.9-1.6c1.3-1.2,2.1-2.6,2.1-4.4c0.1-1-0.1-2-0.6-2.9
			c-0.4-0.9-1.1-1.7-1.9-2.4c-0.8-0.7-2.2-1.6-4.2-2.7c-1.4-0.8-2.4-1.4-2.9-1.9c-0.5-0.5-0.9-0.9-1.2-1.4c-0.3-0.5-0.4-1-0.3-1.5
			c0-0.9,0.4-1.6,1.2-2.2c0.7-0.6,1.7-0.9,2.9-0.8c1.6,0.1,3,0.8,4.3,2.1c1.3,1.3,2.1,3.1,2.5,5.5l0.6,0l0.4-8.3l-0.6,0
			C294.1,552.1,293.8,552.4,293.5,552.6z"/>
		<path d="M309.5,573.4c-0.6,0-1.1-0.1-1.5-0.3c-0.4-0.2-0.6-0.4-0.7-0.7c-0.1-0.3-0.2-1-0.2-2.1l-0.2-14.4c0-1.1,0-1.8,0.1-2
			c0.1-0.4,0.4-0.6,0.6-0.8c0.4-0.2,0.9-0.4,1.5-0.4l0.7,0l0-0.6l-11.5,0.2l0,0.6l0.7,0c0.6,0,1.1,0.1,1.5,0.3
			c0.4,0.2,0.6,0.4,0.7,0.7c0.1,0.3,0.2,1,0.2,2.1l0.2,14.4c0,1.1,0,1.8-0.1,2c-0.2,0.4-0.4,0.6-0.7,0.8c-0.4,0.2-0.9,0.4-1.5,0.4
			l-0.7,0l0,0.6l11.5-0.2l0-0.6L309.5,573.4z"/>
		<path d="M333.2,566.2c-0.1,1.6-0.6,2.9-1.4,3.9c-0.6,0.7-1.7,1.1-3.1,1.2l-1.6,0.1l-1.5-16.9c-0.1-1.1-0.1-1.8,0-2.1
			c0.1-0.4,0.3-0.7,0.6-0.8c0.4-0.3,0.9-0.4,1.5-0.5l0.7-0.1l-0.1-0.6l-11.5,1l0.1,0.6l0.7-0.1c0.6-0.1,1.1,0,1.5,0.2
			c0.4,0.2,0.6,0.4,0.8,0.7c0.1,0.3,0.3,1,0.4,2.1l1.5,16.9l-1.6,0.1c-1,0.1-1.7,0.1-2.2-0.1c-0.8-0.3-1.4-0.7-1.9-1.3
			c-0.5-0.6-0.9-1.5-1.4-2.8l-0.6,0.1l0.5,5.9l19.6-1.8l-0.5-5.9L333.2,566.2z"/>
		<path d="M359.9,566.7c-0.4-0.1-0.9-0.4-1.4-0.9l-0.6-0.5l-2.9-15.2c-0.2-1.1-0.1-2,0.2-2.6c0.4-0.6,1.2-1,2.3-1.2l-0.1-0.6
			l-7.7,1.4l0.1,0.6l0.5-0.1c0.7-0.1,1.4,0,2.1,0.3c0.7,0.3,1.1,1.1,1.3,2.4l2.6,13.7l-18-15.2l-0.5,0.1l3.4,18
			c0.2,1,0.2,1.8,0.1,2.2c-0.1,0.5-0.3,0.8-0.6,1c-0.3,0.2-0.9,0.5-1.8,0.8l0.1,0.6l7.1-1.3l-0.1-0.6c-1.2,0.2-2.1,0.1-2.7-0.4
			c-0.5-0.4-0.8-1.2-1-2.5l-1.7-9.3l13.2,11.4l7.7-1.4l-0.1-0.6C360.8,566.8,360.3,566.8,359.9,566.7z"/>
		<path d="M384.7,560.2c-0.7,0.2-1.3,0.2-1.7,0c-0.3-0.1-0.6-0.3-0.8-0.7c-0.1-0.2-0.3-0.8-0.6-1.7l-4-13.9c-0.3-1.1-0.4-1.7-0.4-2
			c0-0.4,0.2-0.7,0.4-0.9c0.3-0.3,0.8-0.6,1.4-0.8l0.7-0.2l-0.2-0.6l-18.2,5.3l1,7l0.6-0.2c0-2,0.4-3.7,1.4-4.9
			c0.9-1.3,2.4-2.2,4.3-2.7l1.3-0.4c0.6-0.2,1.1-0.2,1.4-0.1c0.3,0.1,0.6,0.2,0.7,0.5c0.2,0.2,0.4,0.9,0.8,2.1l1.7,5.9
			c-1,0.3-1.8,0.4-2.4,0.3c-0.6-0.1-1.2-0.5-1.8-1.1c-0.6-0.7-1.2-1.6-1.6-2.7l-0.6,0.2l3.2,11l0.6-0.2c-0.3-1.7-0.3-3,0.1-4.1
			c0.4-1,1.2-1.7,2.5-2.1l0.4-0.1l2.5,8.6l-2.2,0.6c-1.6,0.5-2.7,0.7-3.3,0.7c-1.1,0-2-0.3-2.7-0.8c-0.7-0.5-1.5-1.5-2.2-2.9
			l-0.6,0.2l1.8,6.2l17.7-5.1l-0.2-0.6L384.7,560.2z"/>
		<path d="M416.7,547.6c-0.6,0.2-1.1,0.3-1.5,0.3c-0.4-0.1-0.7-0.2-1-0.4s-0.5-0.8-1-1.9l-5.3-12.9c-0.4-0.9-0.6-1.4-0.6-1.5
			c-0.1-0.5-0.1-0.9,0-1.3c0.1-0.3,0.3-0.7,0.6-1c0.3-0.3,0.7-0.6,1.2-0.7l0.2-0.1l-0.2-0.6l-7,2.9l0.2,0.6c0.9-0.4,1.7-0.5,2.2-0.4
			c0.6,0.1,1,0.4,1.3,0.9c0.1,0.2,0.4,0.8,0.8,1.8l5.9,14.3l-15.5-15.1l-0.4,0.1l-0.2,21.7l-6.2-15.1c-0.4-1-0.6-1.7-0.6-2
			c0-0.4,0.1-0.7,0.3-1c0.3-0.4,0.7-0.7,1.3-0.9l0.7-0.3l-0.2-0.6l-10.6,4.4l0.2,0.6l0.7-0.3c0.6-0.2,1.1-0.3,1.5-0.3
			c0.4,0.1,0.7,0.2,1,0.4c0.2,0.2,0.5,0.8,1,1.9l5.5,13.4c0.4,1,0.6,1.7,0.6,1.9c0,0.4-0.1,0.7-0.3,1c-0.3,0.4-0.7,0.7-1.3,0.9
			l-0.7,0.3l0.2,0.6l8.3-3.4l0-15.7l11.2,11l8.3-3.4l-0.2-0.6L416.7,547.6z"/>
		<path d="M433.7,520.5c-1.1-0.7-2.3-1.2-3.7-1.5c-1.4-0.3-2.8-0.4-4.3-0.2c-1.5,0.2-3.1,0.8-5,1.8c-1.4,0.8-2.7,1.7-3.9,2.7
			c-1.2,1-2.2,2.1-3.1,3.4l2.2,4c0.4,0.7,0.6,1.2,0.6,1.4c0,0.4,0,0.8-0.2,1.1c-0.2,0.3-0.6,0.7-1.3,1.1l0.3,0.5l9.3-5.2l-0.3-0.5
			l-0.5,0.3c-0.5,0.3-0.9,0.4-1.3,0.4c-0.4,0-0.8-0.1-1-0.2c-0.2-0.2-0.6-0.6-1-1.4l-2.2-4c0.4-0.5,0.8-0.9,1.3-1.3
			c0.4-0.4,0.9-0.7,1.3-0.9c1.3-0.7,2.7-1,4-0.9c1.3,0.1,2.6,0.7,3.8,1.9c1.2,1.1,2.3,2.6,3.3,4.5c0.8,1.5,1.5,3.1,1.9,4.8
			c0.4,1.7,0.4,3.2-0.2,4.5c-0.5,1.3-1.5,2.4-2.9,3.2c-1.5,0.8-3.2,1.1-5,0.9c-1.8-0.3-3.5-1.1-5.2-2.6l-0.5,0.3l3.8,6.8l0.5-0.3
			c-0.1-0.6-0.1-1.1,0-1.4c0.1-0.3,0.3-0.6,0.6-0.7c0.2-0.1,0.8-0.2,1.9-0.4c1.1-0.2,1.9-0.3,2.4-0.5c0.8-0.3,1.8-0.7,2.7-1.2
			c3.1-1.7,5.1-4.1,6-7.2c0.9-3.1,0.6-6.1-1-9C436.2,522.7,435,521.4,433.7,520.5z"/>
		<path d="M463.3,519c-0.4,0-0.7,0-1-0.2c-0.3-0.2-0.8-0.8-1.5-1.8l-6.1-8.8c-1-1.5-2.1-2.5-3.2-3.1c-1.1-0.6-2.4-0.7-4-0.5
			c-1.1,0.2-2.5,0.8-4.1,1.9c-1.9,1.3-3.1,2.7-3.6,4.3c-0.5,1.5-0.6,2.9-0.2,4c0.4,1.1,1.3,2.8,2.8,4.9l4.8,6.9
			c0.5,0.7,0.8,1.3,0.9,1.7c0.1,0.5,0.1,1-0.1,1.4c-0.2,0.4-0.5,0.8-1.1,1.2l-0.4,0.3l0.3,0.5l6.2-4.3l-0.3-0.5
			c-0.7,0.5-1.4,0.8-1.9,0.9c-0.4,0-0.7,0-1.1-0.3c-0.4-0.2-0.9-0.7-1.5-1.6l-5.1-7.4c-1.3-1.9-2.1-3.4-2.3-4.4
			c-0.2-1-0.1-2,0.3-2.9c0.4-0.9,1.1-1.7,2-2.4c0.8-0.6,1.7-0.9,2.5-1c0.8,0,1.5,0.1,2.1,0.5c0.6,0.4,1.5,1.3,2.6,3l6.1,8.8
			c0.7,1,1.1,1.7,1.2,2c0.1,0.3,0,0.7-0.1,1c-0.2,0.3-0.6,0.7-1.3,1.2l-0.5,0.3l0.3,0.5l9.3-6.5l-0.3-0.5
			C464.2,518.7,463.7,519,463.3,519z"/>
		<path d="M471.7,486.8c0-0.7,0.3-1.4,0.8-2l-0.4-0.5l-5.6,4.7l0.4,0.5c0.9-0.7,1.6-1,1.9-1.1c0.6-0.1,1,0.1,1.4,0.6
			c0.3,0.4,0.6,0.9,0.8,1.6l0.7,2.2l-5.9,5l-2.7-1.3c-0.7-0.3-1.1-0.6-1.2-0.6c-0.2-0.1-0.3-0.2-0.5-0.4c-0.2-0.2-0.3-0.5-0.2-0.8
			c0.1-0.4,0.5-0.9,1.1-1.4l0.3-0.3l-0.4-0.5l-8.1,6.9l0.4,0.5c0.5-0.4,1.1-0.6,1.6-0.6c0.7,0,1.8,0.4,3.5,1.2l17.7,8.6l0.2-0.2
			l-5.4-18.4C471.9,488.7,471.7,487.5,471.7,486.8z M467.1,498.4l5.1-4.3l2.3,7.9L467.1,498.4z"/>
		<path d="M514.4,470.1c-0.4,0.5-0.8,0.8-1.2,0.9c-0.4,0.1-0.7,0.2-1,0.1c-0.3-0.1-0.8-0.5-1.7-1.2l-10.4-9.2
			c-0.7-0.6-1.1-1-1.2-1.1c-0.3-0.4-0.5-0.8-0.6-1.2c-0.1-0.3,0-0.7,0.1-1.2c0.2-0.4,0.4-0.8,0.7-1.2l0.2-0.2l-0.5-0.4l-5,5.6
			l0.4,0.4c0.7-0.8,1.3-1.2,1.8-1.3c0.6-0.1,1.1-0.1,1.6,0.2c0.2,0.1,0.7,0.5,1.5,1.3l11.6,10.2l-20.6-6.7l-0.3,0.3l9.4,19.6
			l-12.2-10.8c-0.8-0.7-1.3-1.2-1.4-1.5c-0.2-0.4-0.2-0.7-0.2-1c0.1-0.4,0.4-0.9,0.8-1.4l0.5-0.5l-0.4-0.4l-7.6,8.6l0.5,0.4l0.5-0.5
			c0.4-0.5,0.8-0.8,1.2-0.9c0.4-0.1,0.7-0.2,1-0.1c0.3,0.1,0.9,0.5,1.7,1.3l10.9,9.6c0.8,0.7,1.3,1.2,1.4,1.5c0.2,0.4,0.2,0.7,0.1,1
			c-0.1,0.4-0.4,0.9-0.8,1.4l-0.5,0.5l0.4,0.4l5.9-6.7l-6.9-14.1l14.9,5l5.9-6.7l-0.4-0.4L514.4,470.1z"/>
		<path d="M529.1,448.8c-0.3,0.2-0.7,0.2-1,0.2c-0.3-0.1-1-0.5-2.1-1.2l-8.8-6.2c-1.5-1-2.9-1.6-4.1-1.8c-1.2-0.1-2.5,0.2-3.9,0.9
			c-1,0.6-2.1,1.6-3.1,3.2c-1.3,1.9-1.9,3.6-1.9,5.2c0,1.6,0.4,2.9,1.2,3.8c0.7,0.9,2.2,2.1,4.3,3.6l6.8,4.8
			c0.7,0.5,1.2,0.9,1.4,1.2c0.3,0.4,0.4,0.9,0.4,1.4c0,0.5-0.2,1-0.6,1.5l-0.3,0.4l0.5,0.3l4.4-6.2l-0.5-0.3c-0.5,0.7-1,1.2-1.5,1.5
			c-0.3,0.2-0.7,0.2-1.2,0.1c-0.5-0.1-1.1-0.4-1.9-1l-7.3-5.1c-1.9-1.3-3.1-2.4-3.7-3.3c-0.5-0.9-0.8-1.8-0.7-2.8c0-1,0.4-2,1.1-3
			c0.6-0.8,1.3-1.4,2-1.7c0.7-0.3,1.4-0.4,2.1-0.3c0.7,0.1,1.8,0.7,3.5,1.9l8.8,6.2c1,0.7,1.6,1.2,1.8,1.5c0.2,0.3,0.2,0.6,0.2,1
			c0,0.4-0.3,0.9-0.8,1.6l-0.3,0.5l0.5,0.3l6.5-9.3l-0.5-0.3C529.9,448.2,529.5,448.6,529.1,448.8z"/>
		<path d="M542.7,425.5c-0.3,0.2-0.7,0.3-1,0.3c-0.3,0-1-0.3-2.1-0.9l-12.4-7c-1-0.6-1.7-1-1.8-1.3c-0.2-0.3-0.3-0.6-0.3-1
			c0-0.4,0.3-1.1,0.8-1.9l-0.5-0.3l-5.5,9.8l0.5,0.3c0.5-0.9,0.9-1.4,1.2-1.7c0.3-0.2,0.7-0.3,1-0.3c0.3,0,1,0.3,2.1,0.9l5.4,3
			l-0.7,1.3l-12.2,1.3l-3.4,6l0.5,0.3c0.3-0.5,0.7-0.9,1.2-1.1c0.4-0.1,1.1-0.3,2.3-0.4l9.1-1c-0.4,1.3-0.4,2.5-0.2,3.5
			c0.4,1.5,1.2,2.7,2.6,3.5c1.2,0.7,2.4,0.9,3.6,0.7c1.2-0.2,2.3-0.7,3.2-1.6c0.9-0.9,2-2.5,3.3-4.8l5-8.9l-0.5-0.3
			C543.4,424.7,543,425.2,542.7,425.5z M538.5,432.2c-0.8,1.5-1.8,2.4-2.9,2.7c-1.1,0.3-2.3,0-3.8-0.8c-1-0.6-1.7-1.2-2.1-1.9
			c-0.4-0.7-0.6-1.5-0.4-2.3c0.1-0.8,0.6-1.8,1.3-3.1l0.4-0.8l8.4,4.7L538.5,432.2z"/>
		<path d="M536.1,392.8c-0.3-0.7-0.3-1.4-0.1-2.2l-0.6-0.2l-2.9,6.7l0.6,0.2c0.5-1,0.9-1.6,1.2-1.8c0.5-0.3,1-0.4,1.5-0.1
			c0.4,0.2,0.9,0.6,1.4,1.1l1.6,1.7l-3.1,7.1l-3,0c-0.8,0-1.2,0-1.3,0c-0.2,0-0.4-0.1-0.6-0.2c-0.3-0.1-0.5-0.3-0.5-0.6
			c-0.1-0.4,0.1-1,0.4-1.8l0.2-0.4l-0.6-0.2l-4.2,9.7l0.6,0.2c0.3-0.6,0.7-1,1.2-1.2c0.6-0.3,1.8-0.4,3.7-0.4l19.7-0.1l0.1-0.3
			l-12.9-14.2C537.1,394.5,536.4,393.4,536.1,392.8z M545.3,405.3l-8.2,0l2.7-6.1L545.3,405.3z"/>
		<path d="M559.6,385.3c-0.2,0.6-0.5,1-0.8,1.3c-0.3,0.3-0.6,0.4-0.9,0.4c-0.3,0-1-0.2-2.1-0.5l-13.6-4.7c-1-0.4-1.7-0.6-1.9-0.8
			c-0.3-0.3-0.5-0.6-0.5-0.9c-0.1-0.4,0-1,0.2-1.6l0.2-0.7l-0.6-0.2l-3.8,10.8l0.6,0.2l0.2-0.7c0.2-0.6,0.5-1,0.8-1.3
			c0.3-0.3,0.6-0.4,0.9-0.4c0.3,0,1,0.1,2.1,0.5l13.6,4.7c1,0.4,1.7,0.6,1.9,0.8c0.3,0.3,0.5,0.6,0.5,0.9c0.1,0.4,0,1-0.2,1.6
			l-0.2,0.7l0.6,0.2l3.8-10.8l-0.6-0.2L559.6,385.3z"/>
		<path d="M561.1,360.6c1.5,0.7,2.5,1.6,3.2,2.7c0.4,0.8,0.5,1.9,0.1,3.4l-0.4,1.5l-16.4-4.4c-1.1-0.3-1.7-0.5-1.9-0.7
			c-0.3-0.3-0.5-0.5-0.6-0.8c-0.1-0.4-0.1-1,0.1-1.6l0.2-0.7l-0.6-0.2l-3,11.1l0.6,0.2l0.2-0.7c0.2-0.6,0.4-1.1,0.7-1.3
			c0.3-0.3,0.6-0.5,0.9-0.5c0.3,0,1,0.1,2.1,0.4l16.4,4.4l-0.4,1.6c-0.3,1-0.5,1.7-0.8,2c-0.5,0.6-1.1,1.1-1.8,1.3
			c-0.7,0.3-1.7,0.4-3.2,0.3l-0.2,0.6l5.7,1.5l5.1-19.1l-5.7-1.5L561.1,360.6z"/>
		<path d="M570.7,335.7c-0.2,0.3-0.7,0.7-1.3,1l-0.7,0.4l-15.3-2.6c-1.2-0.2-1.9-0.6-2.3-1.1c-0.4-0.6-0.5-1.4-0.3-2.6l-0.6-0.1
			l-1.3,7.7l0.6,0.1l0.1-0.5c0.1-0.7,0.5-1.4,1-1.8c0.5-0.5,1.4-0.6,2.7-0.4L567,338l-20.5,11.6l-0.1,0.5l18,3.1
			c1,0.2,1.7,0.4,2.1,0.6c0.4,0.2,0.7,0.5,0.8,0.9c0.1,0.3,0.2,1,0.1,1.9l0.6,0.1l1.2-7.2l-0.6-0.1c-0.2,1.2-0.6,2-1.3,2.4
			c-0.5,0.3-1.4,0.3-2.7,0.1l-9.3-1.6l15.2-8.4l1.3-7.7l-0.6-0.1C571.2,334.9,571,335.3,570.7,335.7z"/>
		<path d="M573.2,310.2c-0.1,0.7-0.2,1.3-0.6,1.6c-0.2,0.3-0.5,0.5-0.9,0.5c-0.2,0-0.8,0-1.8-0.1l-14.4-1.1c-1.1-0.1-1.8-0.2-2-0.3
			c-0.4-0.2-0.6-0.4-0.7-0.7c-0.2-0.4-0.3-0.9-0.2-1.6l0-0.7l-0.6,0l-1.4,18.9l6.9,1.5l0-0.6c-1.9-0.7-3.3-1.7-4.1-3
			c-0.9-1.3-1.2-3-1.1-5l0.1-1.3c0-0.6,0.2-1.1,0.4-1.3c0.2-0.3,0.4-0.4,0.7-0.5c0.3-0.1,1-0.1,2.2,0l6.2,0.5
			c-0.1,1-0.3,1.8-0.6,2.4c-0.3,0.5-0.9,1-1.7,1.3c-0.8,0.4-1.9,0.6-3.1,0.6l0,0.6l11.5,0.8l0-0.6c-1.7-0.3-2.9-0.8-3.8-1.5
			s-1.2-1.7-1.1-3.1l0-0.4l8.9,0.7l-0.2,2.3c-0.1,1.7-0.3,2.8-0.5,3.4c-0.4,1-1,1.8-1.7,2.3c-0.7,0.5-1.9,0.9-3.5,1.1l0,0.6l6.5,0.5
			l1.3-18.3l-0.6,0L573.2,310.2z"/>
	</g>
</g>
</svg>
