<svg xmlns="http://www.w3.org/2000/svg" width="668" height="668" viewBox="0 0 668 668" version="1.1"><path d="" stroke="none" fill="#e5ecec" fill-rule="evenodd"/><path d="M 105.500 11.112 C 69.901 16.227, 38.852 43.935, 28.865 79.500 L 26.618 87.500 26.318 291.500 C 26.059 467.587, 26.220 496.684, 27.492 504.150 C 34.139 543.169, 64.426 574.123, 103.144 581.468 C 110.107 582.789, 127.198 583, 227.110 583 L 343 583 343 611.184 C 343 643.461, 343.224 644.506, 351.747 652.008 C 359.700 659.009, 370.566 660.606, 380.197 656.190 C 382.224 655.260, 393.246 646.569, 404.691 636.875 C 416.136 627.181, 435.136 611.093, 446.914 601.125 L 468.328 583 510.914 582.978 C 549.373 582.959, 554.353 582.768, 562.300 581.011 C 597.934 573.132, 625.600 547.670, 636.197 513 L 638.490 505.500 638.773 298.500 C 639.084 70.985, 639.422 84.616, 633.080 69.032 C 621.300 40.086, 597.821 20.154, 566.233 12.285 C 560.043 10.743, 541.427 10.593, 335.500 10.429 C 212.300 10.331, 108.800 10.638, 105.500 11.112 M 103.516 37.653 C 83.556 41.948, 67.953 54.093, 58.546 72.657 C 51.582 86.401, 52.037 70.944, 52.008 294.563 C 51.990 428.206, 52.327 498.468, 53.004 502.063 C 58.277 530.085, 80.129 551.525, 108.450 556.463 C 116.046 557.788, 133.836 558.001, 237.381 558.004 C 355.477 558.007, 357.555 558.041, 360.759 559.995 C 362.552 561.088, 364.912 563.448, 366.005 565.241 C 367.878 568.312, 367.993 570.332, 367.996 600.191 C 367.998 618.621, 368.389 632.122, 368.929 632.456 C 369.743 632.959, 391.233 615.050, 439.431 573.699 C 447.093 567.125, 454.968 561.016, 456.931 560.123 C 460.003 558.726, 467.109 558.423, 508 557.946 C 561.188 557.325, 562.244 557.197, 576.523 549.670 C 590.786 542.150, 600.801 531.790, 607.650 517.471 C 613.419 505.411, 613.963 500.587, 613.983 461.371 L 614 426.242 616.500 420.781 C 625.323 401.508, 625.459 374.023, 616.811 357.827 L 614.500 353.500 613.990 221.500 C 613.507 96.410, 613.384 89.212, 611.628 84 C 603.854 60.924, 587.967 45.206, 565.500 38.366 C 559.774 36.623, 549.236 36.530, 335 36.345 C 138.514 36.174, 109.628 36.337, 103.516 37.653 M 143.205 78.886 C 133.881 82.121, 125.308 90.857, 122.639 99.844 C 121.447 103.858, 121.209 133.483, 121.111 290.038 L 120.995 475.476 123.084 481.751 C 125.742 489.738, 132.604 497.466, 140.663 501.545 L 146.500 504.500 247 504.744 C 302.275 504.879, 349.490 504.647, 351.921 504.230 C 354.353 503.813, 356.464 503.028, 356.611 502.486 C 356.759 501.944, 354.461 499.590, 351.505 497.255 C 348.548 494.921, 343.963 490.083, 341.315 486.505 L 336.500 480 244.306 480 L 152.112 480 149.306 477.587 L 146.500 475.173 146.500 290.622 C 146.500 114.788, 146.584 105.987, 148.286 104.286 C 149.978 102.594, 155.985 102.496, 262.972 102.416 L 375.874 102.332 376.187 133.416 C 376.482 162.694, 376.624 164.769, 378.637 169.122 C 382.918 178.380, 392.461 186.350, 402.932 189.412 C 407.328 190.697, 413.757 191, 436.682 191 L 465 191 465 211 C 465 222, 465.340 231, 465.757 231 C 466.173 231, 468.085 230.524, 470.007 229.943 C 471.928 229.362, 477.255 228.895, 481.845 228.905 L 490.191 228.923 489.818 202.212 C 489.379 170.749, 489.552 171.378, 478.064 159.311 C 445.693 125.308, 401.936 81.481, 398.547 79.667 L 394.500 77.500 271.500 77.275 C 154.397 77.060, 148.246 77.137, 143.205 78.886 M 401 135.642 C 401 167.055, 399.971 166, 430.624 166 L 451.347 166 443.458 157.750 C 439.120 153.213, 427.792 141.554, 418.285 131.842 L 401 114.184 401 135.642 M 184.420 160.885 C 182.726 161.918, 180.756 164.175, 180.041 165.901 C 178.413 169.832, 179.223 176.473, 181.665 179.216 C 185.945 184.022, 185.602 184, 257.652 184 C 323.986 184, 325.455 183.958, 329.625 181.940 C 337.830 177.967, 338.973 167.521, 331.857 161.533 L 328.847 159 258.173 159.004 C 190.794 159.007, 187.356 159.095, 184.420 160.885 M 184.763 218.565 C 179.078 221.650, 177.088 231.300, 181.088 236.385 C 185.739 242.298, 180.150 242, 286.482 242 C 369.147 242, 384.591 241.780, 387.510 240.560 C 395.727 237.127, 397.359 226.466, 390.613 220.284 L 387.029 217 287.265 217.040 C 200.971 217.075, 187.130 217.281, 184.763 218.565 M 426.112 245.581 C 412.241 249.311, 398.185 260.734, 391.738 273.516 C 388.529 279.878, 387.709 280.748, 382.525 283.280 C 369.337 289.722, 359.326 299.607, 352.932 312.500 C 348.575 321.283, 346.044 331.413, 346.017 340.168 C 346.001 345.441, 345.682 346.209, 341.439 351.168 C 325.236 370.109, 324.277 398.361, 339.118 419.547 C 342.774 424.766, 342.978 425.417, 342.030 428.830 C 340.548 434.168, 340.772 444.684, 342.515 451.540 C 348.210 473.944, 366.419 491.397, 389.440 496.519 C 396.086 497.998, 397.194 498.577, 399.022 501.536 C 402.307 506.851, 411.553 514.685, 418.397 517.951 C 434.347 525.563, 449.834 524.326, 465.646 514.177 L 471.500 510.419 476.342 513.614 C 479.005 515.371, 484.297 517.809, 488.101 519.032 C 494.058 520.948, 496.507 521.186, 505.758 520.753 C 516.474 520.251, 519.916 519.349, 528.500 514.794 C 537.312 510.119, 543.374 504.503, 550.049 494.834 C 553.042 490.499, 554.729 489.008, 557.230 488.488 C 559.029 488.114, 563.825 486.230, 567.889 484.300 C 588.182 474.664, 600.427 451.221, 596.876 428.805 C 596.027 423.445, 596.149 422.834, 598.953 418.414 C 604.527 409.624, 606.506 401.859, 606.450 389 C 606.406 378.983, 606.057 376.628, 603.741 370.740 C 600.954 363.653, 596.787 356.989, 591.423 351.039 C 588.419 347.706, 588.278 347.209, 588.999 342.500 C 592.453 319.961, 579.885 296.344, 558.608 285.391 C 551.447 281.705, 551.307 281.556, 547.949 274.078 C 545.405 268.414, 542.898 264.858, 538.023 260 C 520.326 242.365, 495.718 238.955, 476 251.406 L 470.500 254.879 467.500 252.869 C 463.077 249.905, 454.524 246.131, 449.715 245.022 C 443.672 243.627, 432.382 243.894, 426.112 245.581 M 431.792 268.391 C 420.812 271.373, 411.871 281.363, 410.368 292.331 C 408.784 303.886, 417.323 316.458, 429.859 321.029 C 437.454 323.798, 440 326.708, 440 332.619 C 440 339.045, 436.105 343.091, 429.290 343.746 C 415.917 345.031, 393.288 326.280, 389.458 310.741 C 389.084 309.223, 388.425 307.762, 387.992 307.495 C 386.399 306.510, 376.819 316.416, 374.066 321.896 C 370.021 329.946, 368.781 336.944, 369.577 347.212 L 370.252 355.924 364.031 362.049 C 355.394 370.553, 352.485 377.002, 352.549 387.500 C 352.609 397.272, 354.799 402.733, 361.555 409.955 C 366.822 415.587, 374.273 419.642, 381 420.539 C 392.507 422.073, 397 425.727, 397 433.550 C 397 436.396, 396.220 437.980, 393.461 440.739 L 389.923 444.277 381.711 443.726 C 377.195 443.423, 371.526 442.459, 369.114 441.584 L 364.727 439.992 365.357 444.587 C 366.885 455.734, 375.810 466.914, 386.319 470.846 C 389.485 472.031, 392.621 472.998, 393.288 472.996 C 393.954 472.993, 396.215 469.650, 398.312 465.566 C 403.404 455.646, 409.467 450, 415.027 450 C 420.541 450, 424.390 452.194, 426.434 456.503 C 428.609 461.085, 427.862 464.565, 423.502 470.163 C 421.644 472.549, 419.562 476.603, 418.875 479.173 C 417.778 483.278, 417.850 484.341, 419.469 487.932 C 421.554 492.555, 428.262 497.583, 433.707 498.605 C 440.952 499.964, 450.203 496.935, 456.250 491.223 L 459 488.626 459 383.448 L 459 278.270 456.901 275.602 C 452.093 269.489, 440.261 266.091, 431.792 268.391 M 497.500 267.672 C 493.580 268.535, 489.456 270.352, 486.500 272.519 L 483.500 274.719 483.774 312.360 C 484.084 355.026, 483.529 352.734, 492.160 347.017 C 497.603 343.412, 501.589 336.581, 502.571 329.175 C 503.509 322.107, 507.388 318, 513.127 318 C 518.491 318, 522.397 320.209, 524.365 324.357 C 526.401 328.647, 526.422 331.960, 524.462 339.485 C 520.312 355.417, 508.075 367.928, 491 373.695 L 484.500 375.891 484.242 432.888 L 483.984 489.886 487.281 492.401 C 497.758 500.392, 514.880 498.103, 525.165 487.336 C 541.963 469.750, 535.655 441.352, 513.391 434.334 C 506.917 432.293, 503.287 429.049, 502.443 424.550 C 501.667 420.411, 504.028 414.683, 507.428 412.455 C 513.626 408.394, 530.155 413.944, 541.075 423.753 C 550.989 432.658, 558 446.898, 558 458.131 L 558 463.051 560.910 461.547 C 567.711 458.030, 574.182 445.954, 574.214 436.719 C 574.223 434.089, 573.245 428.871, 572.039 425.122 L 569.848 418.307 574.786 411.783 C 580.698 403.972, 583 397.745, 583 389.565 C 583 382.308, 581.957 378.308, 578.546 372.488 L 576.001 368.145 570.250 371.608 C 562.495 376.278, 556.148 378.136, 545.921 378.730 C 535.788 379.319, 532.159 377.962, 529.635 372.643 C 527.518 368.182, 527.578 366.204, 529.950 362.314 C 532.519 358.101, 534.714 357.055, 542.224 356.462 C 549.671 355.874, 560.358 350.971, 563.413 346.739 C 564.747 344.892, 565.541 341.873, 565.812 337.618 C 566.833 321.573, 557.498 308.421, 541.186 302.923 C 532.610 300.032, 530.200 297.718, 528.614 290.853 C 525.809 278.703, 517.387 270.160, 506.107 268.020 C 503.148 267.459, 500.451 267.052, 500.114 267.116 C 499.776 267.180, 498.600 267.430, 497.500 267.672 M 190.260 273.988 C 179.753 275.583, 176.033 288.144, 183.963 295.250 L 187.032 298 254.611 298 C 316.515 298, 322.434 297.857, 325.080 296.294 C 328.184 294.460, 331 289.563, 331 286 C 331 282.321, 328.147 277.521, 324.734 275.456 C 321.618 273.571, 319.182 273.497, 258 273.422 C 223.075 273.380, 192.592 273.634, 190.260 273.988 M 185.299 332.946 C 177.922 337.475, 177.031 346.891, 183.424 352.749 L 186.971 356 242.535 356 C 303.492 356, 302.341 356.109, 305.483 350.033 C 306.317 348.419, 307 345.270, 307 343.035 C 307 339.802, 306.300 338.207, 303.577 335.235 L 300.155 331.500 244.327 331.240 C 190.332 330.988, 188.395 331.044, 185.299 332.946 M 394.241 369.261 C 389.644 371.945, 387.630 377.075, 389.093 382.374 C 390.439 387.251, 393.054 389.052, 400.980 390.562 C 412.754 392.806, 417.218 397.760, 418.562 410.074 C 419.414 417.887, 420.213 419.549, 424.314 422.050 C 428.132 424.378, 432.071 424.532, 435.989 422.506 C 440.746 420.046, 442.002 417.323, 441.979 409.527 C 441.912 387.278, 425.348 369.285, 404.020 368.293 C 399.027 368.060, 395.741 368.386, 394.241 369.261 M 186.449 389.543 C 177.521 393.974, 177.709 408.152, 186.746 411.895 C 188.774 412.735, 203.642 412.978, 240.753 412.777 L 291.963 412.500 295.091 409.372 C 299.428 405.033, 300.116 398.883, 296.808 394.015 C 295.506 392.098, 293.338 389.980, 291.991 389.308 C 290.163 388.397, 276.850 388.080, 239.521 388.058 C 196.814 388.033, 189.054 388.250, 186.449 389.543" stroke="none" fill="#fbfbfb" fill-rule="evenodd"/></svg>